<svg width="24" height="24" viewBox="0 0 24 24" fill="none" xmlns="http://www.w3.org/2000/svg">
<path d="M21.6469 15.2626C21.7457 15.4343 21.7726 15.6382 21.7217 15.8296C21.6707 16.0211 21.5461 16.1846 21.375 16.2845C21.262 16.353 21.1321 16.3887 21 16.3876C20.8672 16.3888 20.7365 16.3547 20.6212 16.2888C20.5059 16.2229 20.4101 16.1276 20.3437 16.0126L18.6187 13.0314C17.6066 13.7122 16.4927 14.228 15.3187 14.5595L15.8625 17.6439C15.8953 17.8401 15.8499 18.0413 15.736 18.2043C15.622 18.3674 15.4486 18.4792 15.2531 18.5157H15.1219C14.9453 18.5163 14.7743 18.4545 14.6388 18.3413C14.5033 18.2281 14.4121 18.0708 14.3812 17.897L13.8469 14.8595C13.2354 14.9507 12.6182 14.9977 12 15.0001C11.3789 15.0004 10.7586 14.9565 10.1437 14.8689L9.60936 17.9064C9.57847 18.0802 9.48726 18.2375 9.35179 18.3507C9.21632 18.4639 9.04527 18.5256 8.86874 18.5251H8.73749C8.54196 18.4886 8.36859 18.3767 8.25464 18.2137C8.14069 18.0507 8.09526 17.8494 8.12811 17.6532L8.68124 14.5595C7.50357 14.2302 6.38628 13.7142 5.37186 13.0314L3.63749 16.0314C3.57049 16.1438 3.47591 16.2372 3.36272 16.3028C3.24952 16.3684 3.12144 16.4041 2.99061 16.4064C2.85919 16.4059 2.73019 16.3709 2.61654 16.3049C2.50289 16.2389 2.40859 16.1442 2.34308 16.0302C2.27756 15.9163 2.24314 15.7871 2.24326 15.6557C2.24337 15.5243 2.27802 15.3952 2.34374 15.2814L4.17186 12.1126C3.53303 11.5648 2.94617 10.9591 2.41874 10.3032C2.35641 10.2272 2.30983 10.1396 2.28171 10.0454C2.2536 9.95124 2.24451 9.8524 2.25499 9.75468C2.26546 9.65695 2.29528 9.56228 2.3427 9.47619C2.39013 9.3901 2.45422 9.31431 2.53124 9.25325C2.60665 9.19039 2.69381 9.14316 2.78764 9.11429C2.88148 9.08542 2.98011 9.07549 3.07782 9.08509C3.17552 9.09469 3.27034 9.12361 3.35677 9.17018C3.44319 9.21675 3.5195 9.28005 3.58124 9.35637C4.16808 10.088 4.83823 10.7487 5.57811 11.3251H5.58749C7.41819 12.7532 9.67825 13.5198 12 13.5001C14.7469 13.5001 16.8562 12.5345 18.4031 11.3345H18.4219C19.1617 10.7581 19.8319 10.0974 20.4187 9.36575C20.4798 9.28873 20.5556 9.22464 20.6417 9.17721C20.7278 9.12978 20.8224 9.09996 20.9202 9.08949C21.0179 9.07902 21.1167 9.08811 21.2109 9.11622C21.3051 9.14434 21.3927 9.19092 21.4687 9.25325C21.5458 9.31431 21.6098 9.3901 21.6573 9.47619C21.7047 9.56228 21.7345 9.65695 21.745 9.75468C21.7555 9.8524 21.7464 9.95124 21.7183 10.0454C21.6901 10.1396 21.6436 10.2272 21.5812 10.3032C21.0538 10.9591 20.4669 11.5648 19.8281 12.1126L21.6469 15.2626Z" fill="#EEF1F6"/>
</svg>
