<svg width="24" height="24" viewBox="0 0 24 24" fill="none" xmlns="http://www.w3.org/2000/svg">
<path d="M23.1844 11.7C23.1563 11.625 22.3594 9.8625 20.5969 8.09063C18.2438 5.74688 15.2719 4.5 12.0001 4.5C8.72818 4.5 5.7563 5.74688 3.40318 8.09063C1.64068 9.8625 0.843802 11.625 0.815677 11.7C0.773821 11.7945 0.752197 11.8967 0.752197 12C0.752197 12.1033 0.773821 12.2055 0.815677 12.3C0.843802 12.375 1.64068 14.1375 3.40318 15.9094C5.7563 18.2531 8.72818 19.5 12.0001 19.5C15.2719 19.5 18.2438 18.2531 20.5969 15.9094C22.3594 14.1375 23.1563 12.375 23.1844 12.3C23.2263 12.2055 23.2479 12.1033 23.2479 12C23.2479 11.8967 23.2263 11.7945 23.1844 11.7ZM12.0001 18C9.11255 18 6.59068 16.95 4.50943 14.8781C3.6493 14.031 2.91949 13.0611 2.3438 12C2.91871 10.9356 3.64855 9.96245 4.50943 9.1125C6.59068 7.05 9.11255 6 12.0001 6C14.8876 6 17.4094 7.05 19.4907 9.1125C20.3515 9.96245 21.0814 10.9356 21.6563 12C20.9813 13.2656 18.0376 18 12.0001 18ZM12.0001 7.5C11.11 7.5 10.24 7.76392 9.49999 8.25839C8.75996 8.75285 8.18319 9.45566 7.84259 10.2779C7.502 11.1002 7.41288 12.005 7.58652 12.8779C7.76015 13.7508 8.18873 14.5526 8.81807 15.182C9.44741 15.8113 10.2492 16.2399 11.1221 16.4135C11.9951 16.5872 12.8999 16.4981 13.7221 16.1575C14.5444 15.8169 15.2472 15.2401 15.7417 14.5001C16.2361 13.76 16.5001 12.89 16.5001 12C16.5001 10.8065 16.0259 9.66193 15.182 8.81802C14.3381 7.97411 13.1935 7.5 12.0001 7.5ZM12.0001 15C11.4067 15 10.8267 14.8241 10.3333 14.4944C9.83999 14.1648 9.45548 13.6962 9.22841 13.148C9.00135 12.5999 8.94194 11.9967 9.0577 11.4147C9.17345 10.8328 9.45917 10.2982 9.87873 9.87868C10.2983 9.45912 10.8328 9.1734 11.4148 9.05764C11.9967 8.94189 12.5999 9.0013 13.1481 9.22836C13.6963 9.45542 14.1648 9.83994 14.4945 10.3333C14.8241 10.8266 15.0001 11.4067 15.0001 12C14.9976 12.7949 14.6807 13.5565 14.1186 14.1186C13.5566 14.6807 12.7949 14.9975 12.0001 15Z" fill="#EEF1F6"/>
</svg>
