<svg width="46" height="46" viewBox="0 0 46 46" fill="none" xmlns="http://www.w3.org/2000/svg">
<g clip-path="url(#clip0_275_392)">
<path fill-rule="evenodd" clip-rule="evenodd" d="M29.08 7.99999H15.92C15.15 7.99999 14.4 8.30999 13.86 8.85999C13.31 9.40999 13 10.15 13 10.93V34.31C13 35.09 13.31 35.83 13.86 36.38C14.41 36.93 15.15 37.24 15.93 37.24H29.08C29.86 37.24 30.6 36.93 31.15 36.38C31.7 35.83 32.01 35.09 32.01 34.31V10.92C32.01 10.14 31.7 9.39999 31.15 8.84999C30.6 8.29999 29.86 7.98999 29.08 7.98999V7.99999ZM15.92 34.31V10.92H29.07V34.31H15.92Z" fill="#EFF1F6"/>
<path fill-rule="evenodd" clip-rule="evenodd" d="M18.85 13.1199C18.85 12.7299 19 12.3599 19.28 12.0899C19.55 11.8199 19.93 11.6599 20.31 11.6599H24.69C25.08 11.6599 25.45 11.8099 25.72 12.0899C25.99 12.3599 26.15 12.7399 26.15 13.1199C26.15 13.4999 26 13.8799 25.72 14.1499C25.45 14.4199 25.07 14.5799 24.69 14.5799H20.31C19.92 14.5799 19.55 14.4299 19.28 14.1499C19.01 13.8799 18.85 13.4999 18.85 13.1199Z" fill="#EFF1F6"/>
<path d="M27.17 22.61L23.26 18.8C23.15 18.69 23.03 18.61 22.9 18.56C22.75 18.5 22.61 18.49 22.51 18.49C22.41 18.49 22.26 18.49 22.13 18.55C22.06 18.57 22 18.6 21.94 18.63L21.92 18.61L21.76 18.76L21.73 18.79L17.82 22.6C17.6 22.81 17.49 23.06 17.49 23.37C17.49 23.68 17.6 23.94 17.81 24.14C18.22 24.55 18.88 24.58 19.34 24.14L21.38 22.14V27.42C21.38 27.72 21.5 27.99 21.71 28.2C21.93 28.39 22.19 28.49 22.48 28.49C22.77 28.49 23.05 28.38 23.24 28.18C23.45 27.98 23.57 27.71 23.57 27.41V22.14L25.62 24.14C25.84 24.35 26.1 24.46 26.38 24.46C26.66 24.46 26.93 24.35 27.14 24.14C27.36 23.93 27.48 23.66 27.48 23.37C27.48 23.08 27.36 22.81 27.14 22.6L27.17 22.61Z" fill="#EFF1F6"/>
</g>
<defs>
<clipPath id="clip0_275_392">
<rect width="19" height="29.23" fill="white" transform="translate(13 8)"/>
</clipPath>
</defs>
</svg>
