<svg width="46" height="46" viewBox="0 0 46 46" fill="none" xmlns="http://www.w3.org/2000/svg">
<path d="M20.5109 13.7501L21.2084 12.988V17.6251C21.2084 17.9676 21.3444 18.2962 21.5867 18.5384C21.8289 18.7806 22.1574 18.9167 22.5 18.9167C22.8426 18.9167 23.1711 18.7806 23.4134 18.5384C23.6556 18.2962 23.7917 17.9676 23.7917 17.6251V12.988L24.4892 13.6984C24.6064 13.8308 24.7496 13.9378 24.9099 14.0126C25.0702 14.0874 25.2441 14.1285 25.4209 14.1333C25.5977 14.1382 25.7736 14.1067 25.9377 14.0407C26.1019 13.9748 26.2507 13.8759 26.375 13.7501C26.4961 13.63 26.5922 13.4871 26.6578 13.3297C26.7233 13.1723 26.7571 13.0035 26.7571 12.833C26.7571 12.6625 26.7233 12.4936 26.6578 12.3362C26.5922 12.1788 26.4961 12.036 26.375 11.9159L23.4171 8.95799C23.2943 8.84039 23.1494 8.74821 22.9909 8.68674C22.6764 8.55755 22.3237 8.55755 22.0092 8.68674C21.8506 8.74821 21.7058 8.84039 21.5829 8.95799L18.625 11.8642C18.3749 12.1143 18.2345 12.4535 18.2345 12.8072C18.2345 13.1608 18.3749 13.5 18.625 13.7501C18.8751 14.0001 19.2143 14.1406 19.5679 14.1406C19.9216 14.1406 20.2608 14.0001 20.5109 13.7501ZM22.5 21.5001C21.7336 21.5001 20.9844 21.7273 20.3472 22.1531C19.7099 22.5789 19.2133 23.1841 18.92 23.8922C18.6267 24.6002 18.55 25.3794 18.6995 26.131C18.849 26.8827 19.2181 27.5732 19.76 28.1151C20.3019 28.657 20.9924 29.0261 21.744 29.1756C22.4957 29.3251 23.2749 29.2484 23.9829 28.9551C24.691 28.6618 25.2962 28.1651 25.722 27.5279C26.1478 26.8907 26.375 26.1415 26.375 25.3751C26.375 24.3474 25.9668 23.3617 25.2401 22.635C24.5134 21.9083 23.5277 21.5001 22.5 21.5001ZM22.5 26.6667C22.2446 26.6667 21.9948 26.591 21.7824 26.4491C21.57 26.3071 21.4044 26.1054 21.3067 25.8694C21.2089 25.6333 21.1833 25.3736 21.2332 25.1231C21.283 24.8725 21.406 24.6424 21.5867 24.4617C21.7673 24.2811 21.9975 24.1581 22.248 24.1082C22.4986 24.0584 22.7583 24.084 22.9943 24.1817C23.2303 24.2795 23.4321 24.445 23.574 24.6575C23.7159 24.8699 23.7917 25.1196 23.7917 25.3751C23.7917 25.7176 23.6556 26.0462 23.4134 26.2884C23.1711 26.5306 22.8426 26.6667 22.5 26.6667ZM13.4584 25.3751C13.4584 25.6305 13.5341 25.8803 13.676 26.0927C13.818 26.3051 14.0197 26.4706 14.2557 26.5684C14.4917 26.6662 14.7515 26.6918 15.002 26.6419C15.2526 26.5921 15.4827 26.4691 15.6634 26.2884C15.844 26.1078 15.967 25.8776 16.0169 25.6271C16.0667 25.3765 16.0411 25.1168 15.9434 24.8808C15.8456 24.6447 15.68 24.443 15.4676 24.3011C15.2552 24.1592 15.0055 24.0834 14.75 24.0834C14.4074 24.0834 14.0789 24.2195 13.8367 24.4617C13.5944 24.704 13.4584 25.0325 13.4584 25.3751ZM31.5417 25.3751C31.5417 25.1196 31.4659 24.8699 31.324 24.6575C31.1821 24.445 30.9803 24.2795 30.7443 24.1817C30.5083 24.084 30.2486 24.0584 29.998 24.1082C29.7475 24.1581 29.5173 24.2811 29.3367 24.4617C29.156 24.6424 29.033 24.8725 28.9832 25.1231C28.9333 25.3736 28.9589 25.6333 29.0567 25.8694C29.1544 26.1054 29.32 26.3071 29.5324 26.4491C29.7448 26.591 29.9946 26.6667 30.25 26.6667C30.5926 26.6667 30.9211 26.5306 31.1634 26.2884C31.4056 26.0462 31.5417 25.7176 31.5417 25.3751ZM32.8334 16.3334H27.6667C27.3241 16.3334 26.9956 16.4695 26.7533 16.7117C26.5111 16.954 26.375 17.2825 26.375 17.6251C26.375 17.9676 26.5111 18.2962 26.7533 18.5384C26.9956 18.7806 27.3241 18.9167 27.6667 18.9167H32.8334C33.1759 18.9167 33.5045 19.0528 33.7467 19.2951C33.9889 19.5373 34.125 19.8658 34.125 20.2084V30.5417C34.125 30.8843 33.9889 31.2128 33.7467 31.4551C33.5045 31.6973 33.1759 31.8334 32.8334 31.8334H12.1667C11.8241 31.8334 11.4956 31.6973 11.2533 31.4551C11.0111 31.2128 10.875 30.8843 10.875 30.5417V20.2084C10.875 19.8658 11.0111 19.5373 11.2533 19.2951C11.4956 19.0528 11.8241 18.9167 12.1667 18.9167H17.3334C17.6759 18.9167 18.0045 18.7806 18.2467 18.5384C18.4889 18.2962 18.625 17.9676 18.625 17.6251C18.625 17.2825 18.4889 16.954 18.2467 16.7117C18.0045 16.4695 17.6759 16.3334 17.3334 16.3334H12.1667C11.139 16.3334 10.1534 16.7417 9.42665 17.4684C8.69994 18.1951 8.29169 19.1807 8.29169 20.2084V30.5417C8.29169 31.5695 8.69994 32.5551 9.42665 33.2818C10.1534 34.0085 11.139 34.4167 12.1667 34.4167H32.8334C33.8611 34.4167 34.8467 34.0085 35.5734 33.2818C36.3001 32.5551 36.7084 31.5695 36.7084 30.5417V20.2084C36.7084 19.1807 36.3001 18.1951 35.5734 17.4684C34.8467 16.7417 33.8611 16.3334 32.8334 16.3334Z" fill="#EEF1F6"/>
</svg>
