<svg width="46" height="46" viewBox="0 0 46 46" fill="none" xmlns="http://www.w3.org/2000/svg">
<path d="M19.875 21.1251H23C23.3315 21.1251 23.6495 20.9934 23.8839 20.759C24.1183 20.5245 24.25 20.2066 24.25 19.8751C24.25 19.5436 24.1183 19.2256 23.8839 18.9912C23.6495 18.7568 23.3315 18.6251 23 18.6251H21.75V18.0001C21.75 17.6686 21.6183 17.3506 21.3839 17.1162C21.1495 16.8818 20.8315 16.7501 20.5 16.7501C20.1685 16.7501 19.8505 16.8818 19.6161 17.1162C19.3817 17.3506 19.25 17.6686 19.25 18.0001V18.6876C18.4905 18.8418 17.8154 19.2727 17.3558 19.8967C16.8962 20.5206 16.6848 21.2931 16.7627 22.0641C16.8406 22.8352 17.2022 23.5498 17.7773 24.0692C18.3524 24.5887 19.1 24.8759 19.875 24.8751H21.125C21.2908 24.8751 21.4497 24.9409 21.5669 25.0581C21.6841 25.1754 21.75 25.3343 21.75 25.5001C21.75 25.6658 21.6841 25.8248 21.5669 25.942C21.4497 26.0592 21.2908 26.1251 21.125 26.1251H18C17.6685 26.1251 17.3505 26.2568 17.1161 26.4912C16.8817 26.7256 16.75 27.0436 16.75 27.3751C16.75 27.7066 16.8817 28.0245 17.1161 28.259C17.3505 28.4934 17.6685 28.6251 18 28.6251H19.25V29.2501C19.25 29.5816 19.3817 29.8995 19.6161 30.134C19.8505 30.3684 20.1685 30.5001 20.5 30.5001C20.8315 30.5001 21.1495 30.3684 21.3839 30.134C21.6183 29.8995 21.75 29.5816 21.75 29.2501V28.5626C22.5095 28.4084 23.1845 27.9775 23.6442 27.3535C24.1038 26.7296 24.3152 25.9571 24.2373 25.186C24.1594 24.415 23.7978 23.7004 23.2227 23.1809C22.6476 22.6615 21.9 22.3743 21.125 22.3751H19.875C19.7092 22.3751 19.5503 22.3092 19.4331 22.192C19.3158 22.0748 19.25 21.9158 19.25 21.7501C19.25 21.5843 19.3158 21.4254 19.4331 21.3081C19.5503 21.1909 19.7092 21.1251 19.875 21.1251ZM34.25 23.0001H30.5V11.7501C30.5009 11.5298 30.4435 11.3132 30.3338 11.1223C30.224 10.9313 30.0657 10.7727 29.875 10.6626C29.685 10.5529 29.4694 10.4951 29.25 10.4951C29.0306 10.4951 28.815 10.5529 28.625 10.6626L24.875 12.8126L21.125 10.6626C20.935 10.5529 20.7194 10.4951 20.5 10.4951C20.2806 10.4951 20.065 10.5529 19.875 10.6626L16.125 12.8126L12.375 10.6626C12.185 10.5529 11.9694 10.4951 11.75 10.4951C11.5306 10.4951 11.315 10.5529 11.125 10.6626C10.9342 10.7727 10.776 10.9313 10.6662 11.1223C10.5565 11.3132 10.4991 11.5298 10.5 11.7501V31.7501C10.5 32.7446 10.8951 33.6985 11.5983 34.4017C12.3016 35.105 13.2554 35.5001 14.25 35.5001H31.75C32.7446 35.5001 33.6984 35.105 34.4016 34.4017C35.1049 33.6985 35.5 32.7446 35.5 31.7501V24.2501C35.5 23.9186 35.3683 23.6006 35.1339 23.3662C34.8995 23.1318 34.5815 23.0001 34.25 23.0001ZM14.25 33.0001C13.9185 33.0001 13.6005 32.8684 13.3661 32.634C13.1317 32.3995 13 32.0816 13 31.7501V13.9126L15.5 15.3376C15.6929 15.4384 15.9073 15.491 16.125 15.491C16.3426 15.491 16.5571 15.4384 16.75 15.3376L20.5 13.1876L24.25 15.3376C24.4429 15.4384 24.6573 15.491 24.875 15.491C25.0926 15.491 25.3071 15.4384 25.5 15.3376L28 13.9126V31.7501C28.0034 32.1765 28.0795 32.5992 28.225 33.0001H14.25ZM33 31.7501C33 32.0816 32.8683 32.3995 32.6339 32.634C32.3995 32.8684 32.0815 33.0001 31.75 33.0001C31.4185 33.0001 31.1005 32.8684 30.8661 32.634C30.6317 32.3995 30.5 32.0816 30.5 31.7501V25.5001H33V31.7501Z" fill="#EEF1F6"/>
</svg>
