<svg width="46" height="46" viewBox="0 0 46 46" fill="none" xmlns="http://www.w3.org/2000/svg">
<path d="M35.5 12.5H10.5C10.1685 12.5 9.85054 12.6317 9.61612 12.8661C9.3817 13.1005 9.25 13.4185 9.25 13.75V23.75C9.25 24.0815 9.3817 24.3995 9.61612 24.6339C9.85054 24.8683 10.1685 25 10.5 25H14.25V36.25C14.25 36.5815 14.3817 36.8995 14.6161 37.1339C14.8505 37.3683 15.1685 37.5 15.5 37.5H30.5C30.8315 37.5 31.1495 37.3683 31.3839 37.1339C31.6183 36.8995 31.75 36.5815 31.75 36.25V25H35.5C35.8315 25 36.1495 24.8683 36.3839 24.6339C36.6183 24.3995 36.75 24.0815 36.75 23.75V13.75C36.75 13.4185 36.6183 13.1005 36.3839 12.8661C36.1495 12.6317 35.8315 12.5 35.5 12.5ZM16.75 35V32.5C17.413 32.5 18.0489 32.7634 18.5178 33.2322C18.9866 33.7011 19.25 34.337 19.25 35H16.75ZM29.25 35H26.75C26.75 34.337 27.0134 33.7011 27.4822 33.2322C27.9511 32.7634 28.587 32.5 29.25 32.5V35ZM29.25 30C27.9239 30 26.6521 30.5268 25.7145 31.4645C24.7768 32.4021 24.25 33.6739 24.25 35H21.75C21.75 33.6739 21.2232 32.4021 20.2855 31.4645C19.3479 30.5268 18.0761 30 16.75 30V20H29.25V30ZM34.25 22.5H31.75V18.75C31.75 18.4185 31.6183 18.1005 31.3839 17.8661C31.1495 17.6317 30.8315 17.5 30.5 17.5H15.5C15.1685 17.5 14.8505 17.6317 14.6161 17.8661C14.3817 18.1005 14.25 18.4185 14.25 18.75V22.5H11.75V15H34.25V22.5ZM23 28.75C23.7417 28.75 24.4667 28.5301 25.0834 28.118C25.7001 27.706 26.1807 27.1203 26.4645 26.4351C26.7484 25.7498 26.8226 24.9958 26.6779 24.2684C26.5333 23.541 26.1761 22.8728 25.6517 22.3483C25.1272 21.8239 24.459 21.4667 23.7316 21.3221C23.0042 21.1774 22.2502 21.2516 21.5649 21.5355C20.8797 21.8193 20.294 22.2999 19.882 22.9166C19.4699 23.5333 19.25 24.2583 19.25 25C19.25 25.9946 19.6451 26.9484 20.3483 27.6517C21.0516 28.3549 22.0054 28.75 23 28.75ZM23 23.75C23.2472 23.75 23.4889 23.8233 23.6945 23.9607C23.9 24.098 24.0602 24.2932 24.1548 24.5216C24.2495 24.7501 24.2742 25.0014 24.226 25.2439C24.1778 25.4863 24.0587 25.7091 23.8839 25.8839C23.7091 26.0587 23.4863 26.1778 23.2439 26.226C23.0014 26.2742 22.7501 26.2495 22.5216 26.1548C22.2932 26.0602 22.098 25.9 21.9607 25.6945C21.8233 25.4889 21.75 25.2472 21.75 25C21.75 24.6685 21.8817 24.3505 22.1161 24.1161C22.3505 23.8817 22.6685 23.75 23 23.75Z" fill="#EEF1F6"/>
</svg>
