<svg width="46" height="46" viewBox="0 0 46 46" fill="none" xmlns="http://www.w3.org/2000/svg">
<path d="M13.375 10V13.375H10V15.625H13.375V19H15.625V15.625H19V13.375H15.625V10H13.375ZM21.25 13.375V15.625H31.375V17.875H24.625C23.3875 17.875 22.375 18.8875 22.375 20.125V26.875C22.375 28.1125 23.3875 29.125 24.625 29.125H31.375V31.375H15.625V21.25H13.375V31.375C13.375 31.9717 13.6121 32.544 14.034 32.966C14.456 33.3879 15.0283 33.625 15.625 33.625H31.375C32.6125 33.625 33.625 32.6125 33.625 31.375V28.81C33.9651 28.6137 34.2478 28.3318 34.4452 27.9923C34.6425 27.6529 34.7476 27.2677 34.75 26.875V20.125C34.7476 19.7323 34.6425 19.3471 34.4452 19.0077C34.2478 18.6682 33.9651 18.3863 33.625 18.19V15.625C33.625 14.3875 32.6125 13.375 31.375 13.375H21.25ZM24.625 20.125H32.5V26.875H24.625V20.125ZM28 21.8125C27.5524 21.8125 27.1232 21.9903 26.8068 22.3068C26.4903 22.6232 26.3125 23.0524 26.3125 23.5C26.3125 23.9476 26.4903 24.3768 26.8068 24.6932C27.1232 25.0097 27.5524 25.1875 28 25.1875C28.4476 25.1875 28.8768 25.0097 29.1932 24.6932C29.5097 24.3768 29.6875 23.9476 29.6875 23.5C29.6875 23.0524 29.5097 22.6232 29.1932 22.3068C28.8768 21.9903 28.4476 21.8125 28 21.8125Z" fill="#EEF1F6"/>
</svg>
