<svg width="46" height="46" viewBox="0 0 46 46" fill="none" xmlns="http://www.w3.org/2000/svg">
<g clip-path="url(#clip0_275_392)">
<path d="M17.6266 22.6557C17.7583 22.7873 17.8628 22.9435 17.9341 23.1155C18.0054 23.2875 18.0421 23.4718 18.0421 23.658C18.0421 23.8442 18.0054 24.0285 17.9341 24.2005C17.8628 24.3725 17.7583 24.5287 17.6266 24.6603L15.0384 27.2499H28.6667C29.0424 27.2499 29.4028 27.3992 29.6684 27.6649C29.9341 27.9305 30.0834 28.2909 30.0834 28.6666C30.0834 29.0423 29.9341 29.4027 29.6684 29.6683C29.4028 29.934 29.0424 30.0833 28.6667 30.0833H15.0384L17.628 32.6729C17.7596 32.8045 17.8641 32.9606 17.9353 33.1325C18.0066 33.3044 18.0433 33.4887 18.0434 33.6747C18.0435 33.8608 18.0069 34.0451 17.9357 34.217C17.8646 34.389 17.7603 34.5452 17.6287 34.6768C17.4972 34.8084 17.341 34.9129 17.1691 34.9841C16.9973 35.0554 16.813 35.0921 16.6269 35.0922C16.4409 35.0923 16.2566 35.0557 16.0847 34.9845C15.9127 34.9134 15.7565 34.8091 15.6249 34.6775L10.6155 29.6682C10.3499 29.4025 10.2007 29.0423 10.2007 28.6666C10.2007 28.291 10.3499 27.9307 10.6155 27.665L15.6249 22.6557C15.8905 22.3901 16.2508 22.2409 16.6264 22.2409C17.0021 22.2409 17.3624 22.3901 17.628 22.6557H17.6266ZM28.3734 11.3224C28.6174 11.0784 28.9419 10.9319 29.2862 10.9103C29.6305 10.8886 29.9709 10.9933 30.2434 11.2048L30.3766 11.3224L35.3859 16.3317C35.6299 16.5756 35.7764 16.9002 35.798 17.2445C35.8197 17.5888 35.715 17.9291 35.5035 18.2017L35.3859 18.3349L30.3766 23.3428C30.1217 23.5968 29.7796 23.7444 29.4198 23.7553C29.0601 23.7663 28.7096 23.64 28.4396 23.4019C28.1697 23.1639 28.0004 22.832 27.9663 22.4737C27.9322 22.1154 28.0357 21.7575 28.2559 21.4728L28.3734 21.3396L30.9617 18.7499H17.3334C16.9723 18.7495 16.625 18.6113 16.3624 18.3634C16.0999 18.1155 15.9419 17.7768 15.9207 17.4163C15.8995 17.0558 16.0168 16.7009 16.2486 16.424C16.4803 16.1471 16.8091 15.9692 17.1676 15.9265L17.3334 15.9166H30.9631L28.3734 13.3241C28.1079 13.0584 27.9587 12.6982 27.9587 12.3225C27.9587 11.9469 28.1079 11.588 28.3734 11.3224Z" fill="#EEF1F6"/>
</g>
<defs>
<clipPath id="clip0_275_392">
<rect width="34" height="34" fill="white" transform="translate(6 6)"/>
</clipPath>
</defs>
</svg>
