<svg width="46" height="46" viewBox="0 0 46 46" fill="none" xmlns="http://www.w3.org/2000/svg">
<g clip-path="url(#clip0_275_392)">
<path d="M27.2834 15.7845C27.8927 15.7845 28.4801 15.7852 29.0675 15.7845C30.3904 15.7827 31.7134 15.7768 33.036 15.78C33.9536 15.7821 34.6878 16.2974 34.8963 17.1393C34.9894 17.5156 34.9905 17.9197 34.9915 18.3112C34.9968 20.7458 34.9891 23.1804 34.988 25.615C34.988 26.1655 35.0018 26.7163 35 27.2668C34.9965 28.238 34.3036 29.0775 33.3348 29.2229C32.9154 29.2858 32.4793 29.2455 32.0507 29.2462C30.5044 29.2479 28.9581 29.2472 27.4122 29.2476C27.3773 29.2476 27.3423 29.2517 27.2749 29.2563V29.491C27.2749 31.0503 27.2792 32.6096 27.2735 34.1689C27.2686 35.449 26.4699 36.5169 25.2429 36.8678C24.9592 36.9491 24.6541 36.9933 24.3584 36.994C21.0662 37.001 17.7736 37.0044 14.4813 36.9864C13.9514 36.9836 13.406 36.9314 12.8963 36.7975C11.8732 36.5291 11.3186 35.787 11.1238 34.7959C11.0296 34.3174 11.0095 33.8184 11.0092 33.3287C11.0014 26.2162 11.0046 19.1037 11 11.9909C10.9996 11.2836 11.1729 10.6378 11.6153 10.0776C12.161 9.38592 12.8913 9.01452 13.7751 9.01139C17.3319 8.99783 20.8891 8.99574 24.4463 9.00583C25.8063 9.00965 26.9239 9.90337 27.2128 11.1758C27.2548 11.3604 27.2689 11.5541 27.2697 11.744C27.2753 13.0251 27.2739 14.3062 27.2749 15.5873C27.2749 15.644 27.2795 15.7007 27.2834 15.7845ZM25.8768 27.4017C27.735 27.4017 29.5931 27.4017 31.4509 27.4017C31.9332 27.4017 32.4151 27.3961 32.8974 27.3993C33.0653 27.4003 33.1468 27.3447 33.1316 27.1659C33.1196 27.022 33.1323 26.8763 33.1323 26.7313C33.1323 24.9689 33.1323 23.2065 33.1327 21.4441C33.1327 20.2614 33.1362 19.0787 33.1334 17.8964C33.1327 17.6397 33.1066 17.6213 32.8469 17.6213C31.1302 17.6216 29.4136 17.6234 27.6965 17.6244C25.6211 17.6258 23.5456 17.6279 21.4705 17.6276C20.6238 17.6276 19.7774 17.622 18.9307 17.6192C18.6644 17.6185 18.6263 17.654 18.6228 17.92C18.6203 18.1172 18.6249 18.3144 18.6249 18.5112C18.6256 21.3808 18.6263 24.2508 18.6273 27.1204C18.6273 27.3729 18.6531 27.3975 18.9092 27.4017C18.9621 27.4024 19.0151 27.4017 19.068 27.4017C21.3375 27.4017 23.6073 27.4017 25.8768 27.4017ZM12.8539 30.3005H25.4115V29.2476C25.3297 29.2476 25.2602 29.2476 25.191 29.2476C23.0337 29.2469 20.876 29.2472 18.7187 29.2448C17.6067 29.2434 16.7639 28.4171 16.7632 27.3189C16.7618 24.1019 16.765 20.8853 16.7688 17.6682C16.7688 17.5361 16.7837 17.4012 16.814 17.2725C17.0391 16.3249 17.7796 15.7761 18.8104 15.7779C20.9505 15.7817 23.0901 15.7824 25.2302 15.7838C25.2916 15.7838 25.3533 15.7768 25.4175 15.7727V14.7395H12.8539V30.3002V30.3005ZM19.1255 32.1544C18.5642 32.1544 18.0424 32.1544 17.5206 32.1544C16.0276 32.1544 14.5346 32.154 13.0416 32.1537C12.9425 32.1537 12.8412 32.1314 12.843 32.2924C12.8493 32.8603 12.8303 33.4285 12.8497 33.9961C12.8747 34.7281 13.3655 35.1732 14.0703 35.1419C14.3169 35.1308 14.5639 35.1262 14.8105 35.1262C17.8085 35.1262 20.8062 35.1283 23.8042 35.129C23.9922 35.129 24.1824 35.1388 24.3676 35.1141C24.5669 35.0876 24.7927 35.0723 24.9515 34.9694C25.2764 34.759 25.4418 34.4387 25.4274 34.0371C25.414 33.6612 25.4207 33.2842 25.4193 32.908C25.4186 32.6621 25.4193 32.4166 25.4193 32.168H19.3604C19.6024 32.2292 19.9094 32.2824 20.198 32.386C20.6195 32.5373 20.8817 32.8481 20.9582 33.2894C20.9875 33.4591 20.9953 33.6351 20.9893 33.8072C20.9709 34.3428 20.5402 34.8953 20.0032 34.975C19.5428 35.0431 19.068 35.0216 18.5995 35.0268C18.1747 35.0317 17.854 34.8227 17.582 34.5177C16.9929 33.857 17.2546 32.5578 18.2756 32.3286C18.5434 32.2685 18.8133 32.218 19.1251 32.1544H19.1255ZM12.8313 12.8613H25.4179C25.4179 12.4979 25.4313 12.1509 25.4147 11.8052C25.3893 11.2811 25.0372 10.9268 24.5077 10.868C24.4145 10.8576 24.3203 10.8527 24.2265 10.8527C21.3936 10.852 18.561 10.851 15.7281 10.8527C15.0701 10.8531 14.4122 10.8555 13.7546 10.8764C13.3263 10.8899 13.0522 11.1055 12.977 11.5225C12.8984 11.9579 12.8783 12.4037 12.831 12.861L12.8313 12.8613ZM19.1724 34.1957C19.1724 34.1908 19.1731 34.1863 19.1735 34.1814C19.3202 34.1814 19.4677 34.1891 19.6137 34.1797C19.9178 34.1602 20.1256 33.9575 20.1426 33.6758C20.1592 33.4052 20.0085 33.1816 19.7369 33.1538C19.382 33.1173 19.0221 33.1041 18.6658 33.1177C18.3797 33.1284 18.1698 33.3639 18.1518 33.6254C18.1348 33.8702 18.3056 34.0893 18.5959 34.1484C18.7833 34.1866 18.9798 34.1814 19.172 34.196L19.1724 34.1957Z" fill="#EEF1F6"/>
<path d="M30.1742 26.7782C29.8274 26.7782 29.4806 26.7754 29.1338 26.7789C28.5259 26.7848 27.8817 26.178 27.8711 25.576C27.8637 25.1473 27.8634 24.7182 27.8718 24.2894C27.8835 23.6909 28.5531 23.0382 29.1701 23.0319C29.8461 23.025 30.5224 23.0253 31.198 23.041C31.9501 23.0587 32.5114 23.6036 32.528 24.3419C32.5389 24.8266 32.5481 25.3177 32.4842 25.7965C32.4119 26.3373 31.9095 26.7476 31.3546 26.7779C30.9623 26.7991 30.5679 26.782 30.1742 26.782V26.7786V26.7782ZM30.1985 25.9321C30.1985 25.9321 30.1985 25.9342 30.1985 25.9349C30.3513 25.9349 30.5037 25.936 30.6564 25.9349C30.8148 25.9335 30.9736 25.9349 31.1316 25.9269C31.4999 25.9085 31.6714 25.7482 31.6845 25.39C31.6957 25.084 31.695 24.7769 31.6823 24.4709C31.6675 24.1082 31.4795 23.9089 31.1098 23.8989C30.5114 23.8825 29.9124 23.8829 29.3141 23.8968C28.9666 23.9048 28.7432 24.1284 28.727 24.4695C28.7122 24.7811 28.7154 25.0951 28.7355 25.4063C28.7591 25.7729 28.9408 25.9273 29.3183 25.9318C29.6118 25.9353 29.9053 25.9325 30.1985 25.9325V25.9321Z" fill="#EEF1F6"/>
<path d="M21.0591 18.2174C21.5057 18.2174 21.9527 18.2122 22.399 18.2192C22.7857 18.2251 22.9303 18.3534 22.9395 18.7272C22.9532 19.3066 22.955 19.8863 22.9423 20.4656C22.9335 20.8683 22.7998 20.981 22.3828 20.9838C21.7538 20.9879 21.1251 20.9879 20.4961 20.9883C20.2258 20.9883 19.9549 20.9935 19.685 20.9806C19.3442 20.9643 19.2292 20.8506 19.2253 20.5188C19.2179 19.9047 19.2165 19.2902 19.2232 18.6761C19.2267 18.3461 19.364 18.2147 19.7016 18.2091C20.1538 18.2018 20.6065 18.2074 21.0591 18.2074C21.0591 18.2108 21.0591 18.2143 21.0591 18.2178V18.2174ZM21.0436 20.1255C21.0436 20.1255 21.0436 20.1224 21.0436 20.1207C21.3015 20.1207 21.5594 20.1248 21.8173 20.1189C21.9492 20.1158 22.0684 20.0668 22.0826 19.9176C22.0988 19.7458 22.1108 19.5712 22.0963 19.4001C22.0773 19.173 21.9742 19.0885 21.7389 19.0809C21.5107 19.0736 21.2817 19.075 21.0531 19.0757C20.8361 19.0764 20.6188 19.0712 20.4029 19.0868C20.1531 19.1049 20.0582 19.204 20.047 19.4502C20.041 19.582 20.0565 19.7155 20.0706 19.847C20.0932 20.0539 20.1683 20.1217 20.3754 20.1245C20.598 20.1276 20.821 20.1252 21.0436 20.1252V20.1255Z" fill="#EEF1F6"/>
<path d="M23.0266 21.6195C23.185 21.6195 23.3438 21.6125 23.5018 21.6212C23.7319 21.6337 23.8589 21.7589 23.8804 21.9776C23.9012 22.1894 23.7834 22.4175 23.5883 22.4315C23.1988 22.4586 22.8044 22.4631 22.4156 22.4332C22.1976 22.4165 22.0921 22.1995 22.1171 21.9533C22.1365 21.7606 22.2618 21.6375 22.4816 21.6222C22.6626 21.6097 22.845 21.6198 23.0266 21.6198V21.6195Z" fill="#EEF1F6"/>
<path d="M28.7408 22.4863C28.6152 22.478 28.4324 22.4748 28.2525 22.4519C28.007 22.4206 27.8673 22.2481 27.8757 22.0082C27.8835 21.7783 28.0108 21.6441 28.2716 21.6312C28.594 21.6152 28.9175 21.611 29.24 21.6204C29.5187 21.6288 29.6577 21.7734 29.6552 22.0134C29.6524 22.2676 29.494 22.4397 29.2379 22.4606C29.0914 22.4724 28.9447 22.4762 28.7411 22.4863H28.7408Z" fill="#EEF1F6"/>
<path d="M20.1017 22.4641C19.9493 22.4641 19.7962 22.4735 19.6448 22.462C19.3788 22.4418 19.2208 22.2606 19.2257 22.0002C19.2306 21.7606 19.3714 21.6246 19.6505 21.6191C19.9669 21.6124 20.2837 21.617 20.6002 21.6277C20.851 21.6364 20.9777 21.7533 20.9914 21.9633C21.0083 22.2179 20.8789 22.4189 20.6453 22.4495C20.4672 22.4728 20.283 22.454 20.1017 22.454C20.1017 22.4575 20.1017 22.4609 20.1017 22.4644V22.4641Z" fill="#EEF1F6"/>
<path d="M31.6517 21.6194C31.8157 21.6194 31.9805 21.6131 32.1442 21.6207C32.3745 21.6315 32.5044 21.7404 32.5284 21.9271C32.5598 22.1726 32.4486 22.3708 32.2373 22.4387C32.1876 22.4546 32.1343 22.4675 32.0828 22.4679C31.784 22.4693 31.4848 22.4724 31.1863 22.463C30.9923 22.4567 30.8582 22.3545 30.7909 22.1709C30.6903 21.8972 30.8328 21.6569 31.125 21.6329C31.2996 21.6187 31.4763 21.6301 31.6524 21.6301C31.6524 21.6263 31.6524 21.6225 31.6524 21.6187L31.6517 21.6194Z" fill="#EEF1F6"/>
<path d="M25.9453 21.6226C26.0977 21.6226 26.2508 21.6139 26.4025 21.6247C26.6283 21.6411 26.7373 21.7478 26.7634 21.9558C26.7899 22.1665 26.6766 22.3665 26.491 22.4315C26.4473 22.4468 26.4004 22.4604 26.3542 22.4624C26.0176 22.4771 25.6817 22.5153 25.348 22.4176C25.0979 22.3442 24.9737 22.2388 24.979 22.0622C24.985 21.8619 25.1713 21.6665 25.4002 21.6383C25.5805 21.6164 25.7629 21.6129 25.9442 21.6011C25.9442 21.6084 25.9442 21.6157 25.9446 21.623L25.9453 21.6226Z" fill="#EEF1F6"/>
<path d="M19.1526 12.2653C18.8591 12.2653 18.5653 12.2678 18.2717 12.2647C17.9616 12.2615 17.7736 12.112 17.7687 11.871C17.7634 11.6206 17.9764 11.4238 18.2678 11.4207C18.8489 11.4148 19.4303 11.4085 20.0113 11.4134C20.3684 11.4161 20.586 11.6617 20.5183 11.9611C20.4735 12.1596 20.3384 12.2591 20.0865 12.2633C19.7753 12.2681 19.4642 12.2643 19.1526 12.2643V12.2653Z" fill="#EEF1F6"/>
</g>
<defs>
<clipPath id="clip0_275_392">
<rect width="24" height="28" fill="white" transform="translate(11 9)"/>
</clipPath>
</defs>
</svg>
