<svg width="40" height="40" viewBox="0 0 40 40" fill="none" xmlns="http://www.w3.org/2000/svg">
<path d="M36.6667 5H11.6667C10.5167 5 9.61667 5.58333 9.01667 6.46667L0 20L9.01667 33.5167C9.61667 34.4 10.5167 35 11.6667 35H36.6667C38.5 35 40 33.5 40 31.6667V8.33333C40 6.5 38.5 5 36.6667 5ZM36.6667 31.6667H11.7833L4 20L11.7667 8.33333H36.6667V31.6667ZM17.35 28.3333L23.3333 22.35L29.3167 28.3333L31.6667 25.9833L25.6833 20L31.6667 14.0167L29.3167 11.6667L23.3333 17.65L17.35 11.6667L15 14.0167L20.9833 20L15 25.9833L17.35 28.3333Z" fill="#EEF1F6"/>
</svg>
