<svg width="64" height="64" viewBox="0 0 64 64" fill="none" xmlns="http://www.w3.org/2000/svg">
<path d="M47.4932 11.92C47.2799 11.92 47.0665 11.8667 46.8799 11.76C41.7599 9.12004 37.3332 8.00004 32.0265 8.00004C26.7465 8.00004 21.7332 9.25337 17.1732 11.76C16.5332 12.1067 15.7332 11.8667 15.3599 11.2267C15.0132 10.5867 15.2532 9.76004 15.8932 9.41337C20.8532 6.72004 26.2932 5.33337 32.0265 5.33337C37.7065 5.33337 42.6665 6.58671 48.1065 9.38671C48.7732 9.73337 49.0132 10.5334 48.6665 11.1734C48.4265 11.6534 47.9732 11.92 47.4932 11.92ZM9.33321 25.92C9.06655 25.92 8.79988 25.84 8.55988 25.68C7.94655 25.2534 7.81321 24.4267 8.23988 23.8134C10.8799 20.08 14.2399 17.1467 18.2399 15.0934C26.6132 10.7734 37.3332 10.7467 45.7332 15.0667C49.7332 17.12 53.0932 20.0267 55.7332 23.7334C56.1599 24.32 56.0265 25.1734 55.4132 25.6C54.7999 26.0267 53.9732 25.8934 53.5465 25.28C51.1465 21.92 48.1065 19.28 44.5065 17.44C36.8532 13.52 27.0665 13.52 19.4399 17.4667C15.8132 19.3334 12.7732 22 10.3732 25.36C10.1599 25.7334 9.75988 25.92 9.33321 25.92ZM25.9999 58.1067C25.6532 58.1067 25.3065 57.9734 25.0665 57.7067C22.7465 55.3867 21.4932 53.8934 19.7065 50.6667C17.8665 47.3867 16.9065 43.3867 16.9065 39.0934C16.9065 31.1734 23.6799 24.72 31.9999 24.72C40.3199 24.72 47.0932 31.1734 47.0932 39.0934C47.0932 39.84 46.5065 40.4267 45.7599 40.4267C45.0132 40.4267 44.4265 39.84 44.4265 39.0934C44.4265 32.64 38.8532 27.3867 31.9999 27.3867C25.1465 27.3867 19.5732 32.64 19.5732 39.0934C19.5732 42.9334 20.4265 46.48 22.0532 49.36C23.7599 52.4267 24.9332 53.7334 26.9865 55.8134C27.4932 56.3467 27.4932 57.1734 26.9865 57.7067C26.6932 57.9734 26.3465 58.1067 25.9999 58.1067ZM45.1199 53.1734C41.9465 53.1734 39.1465 52.3734 36.8532 50.8C32.8799 48.1067 30.5065 43.7334 30.5065 39.0934C30.5065 38.3467 31.0932 37.76 31.8399 37.76C32.5865 37.76 33.1732 38.3467 33.1732 39.0934C33.1732 42.8534 35.0932 46.4 38.3465 48.5867C40.2399 49.8667 42.4532 50.48 45.1199 50.48C45.7599 50.48 46.8265 50.4 47.8932 50.2134C48.6132 50.08 49.3065 50.56 49.4399 51.3067C49.5732 52.0267 49.0932 52.72 48.3465 52.8534C46.8265 53.1467 45.4932 53.1734 45.1199 53.1734ZM39.7599 58.6667C39.6532 58.6667 39.5199 58.64 39.4132 58.6134C35.1732 57.44 32.3999 55.8667 29.4932 53.0134C25.7599 49.3067 23.7065 44.3734 23.7065 39.0934C23.7065 34.7734 27.3865 31.2534 31.9199 31.2534C36.4532 31.2534 40.1332 34.7734 40.1332 39.0934C40.1332 41.9467 42.6132 44.2667 45.6799 44.2667C48.7465 44.2667 51.2265 41.9467 51.2265 39.0934C51.2265 29.04 42.5599 20.88 31.8932 20.88C24.3199 20.88 17.3865 25.0934 14.2665 31.6267C13.2265 33.7867 12.6932 36.32 12.6932 39.0934C12.6932 41.1734 12.8799 44.4534 14.4799 48.72C14.7465 49.4134 14.3999 50.1867 13.7065 50.4267C13.0132 50.6934 12.2399 50.32 11.9999 49.6534C10.6932 46.16 10.0532 42.6934 10.0532 39.0934C10.0532 35.8934 10.6665 32.9867 11.8665 30.4534C15.4132 23.0134 23.2799 18.1867 31.8932 18.1867C44.0265 18.1867 53.8932 27.5467 53.8932 39.0667C53.8932 43.3867 50.2132 46.9067 45.6799 46.9067C41.1465 46.9067 37.4665 43.3867 37.4665 39.0667C37.4665 36.2134 34.9865 33.8934 31.9199 33.8934C28.8532 33.8934 26.3732 36.2134 26.3732 39.0667C26.3732 43.6267 28.1332 47.8934 31.3599 51.0934C33.8932 53.6 36.3199 54.9867 40.0799 56.0267C40.7999 56.2134 41.1999 56.96 41.0132 57.6534C40.8799 58.2667 40.3199 58.6667 39.7599 58.6667Z" fill="#00A389"/>
</svg>
