<svg width="58" height="58" viewBox="0 0 58 58" fill="none" xmlns="http://www.w3.org/2000/svg">
<path d="M7.85417 23.3209C7.57222 23.1195 7.40064 22.8674 7.33942 22.5645C7.27819 22.2616 7.36922 21.9498 7.6125 21.6292C10.1097 18.2056 13.2417 15.5473 17.0085 13.6542C20.7753 11.7612 24.7926 10.8146 29.0604 10.8146C33.3299 10.8146 37.3576 11.7314 41.1438 13.5648C44.9299 15.3982 48.0917 18.0461 50.6292 21.5084C50.8708 21.8709 50.9482 22.1931 50.8612 22.475C50.7742 22.757 50.6163 22.9987 50.3875 23.2C50.1458 23.4014 49.8639 23.4925 49.5417 23.4731C49.2194 23.4538 48.9375 23.2822 48.6958 22.9584C46.4806 19.8167 43.6305 17.4105 40.1457 15.7398C36.6608 14.0691 32.9658 13.2329 29.0604 13.2313C25.1535 13.2313 21.4882 14.0675 18.0646 15.7398C14.641 17.4121 11.8014 19.8183 9.54583 22.9584C9.30417 23.3209 9.02222 23.5223 8.7 23.5625C8.37778 23.6028 8.09583 23.5223 7.85417 23.3209ZM35.8875 53.1063C31.6986 52.0591 28.275 49.9743 25.6167 46.852C22.9583 43.7296 21.6292 39.9137 21.6292 35.4042C21.6292 33.3903 22.3542 31.6987 23.8042 30.3292C25.2542 28.9598 27.0063 28.275 29.0604 28.275C31.1146 28.275 32.8667 28.9598 34.3167 30.3292C35.7667 31.6987 36.4917 33.3903 36.4917 35.4042C36.4917 36.7334 36.9951 37.8515 38.0021 38.7585C39.009 39.6656 40.1972 40.1183 41.5667 40.1167C42.9361 40.1167 44.1042 39.6632 45.0708 38.7561C46.0375 37.8491 46.5208 36.7318 46.5208 35.4042C46.5208 30.732 44.809 26.8049 41.3854 23.623C37.9618 20.441 33.8736 18.85 29.1208 18.85C24.3681 18.85 20.2799 20.441 16.8563 23.623C13.4326 26.8049 11.7208 30.7119 11.7208 35.3438C11.7208 36.3105 11.8119 37.5188 11.9939 38.9688C12.176 40.4188 12.6086 42.1105 13.2917 44.0438C13.4125 44.4063 13.4028 44.7285 13.2627 45.0105C13.1225 45.2924 12.8905 45.4938 12.5667 45.6146C12.2444 45.7355 11.9319 45.725 11.629 45.5832C11.3261 45.4414 11.1151 45.2102 10.9958 44.8896C10.3917 43.3188 9.95908 41.7576 9.69808 40.2061C9.43708 38.6546 9.30578 37.054 9.30417 35.4042C9.30417 30.0473 11.248 25.5563 15.1356 21.9313C19.0232 18.3063 23.6648 16.4938 29.0604 16.4938C34.4979 16.4938 39.1701 18.3063 43.0771 21.9313C46.984 25.5563 48.9375 30.0473 48.9375 35.4042C48.9375 37.4181 48.223 39.0993 46.7939 40.4478C45.3649 41.7963 43.6224 42.4714 41.5667 42.473C39.5125 42.473 37.7499 41.7979 36.279 40.4478C34.8081 39.0977 34.0734 37.4165 34.075 35.4042C34.075 34.075 33.582 32.9569 32.596 32.0499C31.61 31.1428 30.4315 30.6901 29.0604 30.6917C27.691 30.6917 26.5124 31.1452 25.5248 32.0523C24.5372 32.9594 24.0442 34.0767 24.0458 35.4042C24.0458 39.3112 25.2042 42.5737 27.521 45.1917C29.8378 47.8098 32.828 49.6424 36.4917 50.6896C36.8542 50.8105 37.0958 51.0119 37.2167 51.2938C37.3375 51.5757 37.3576 51.8778 37.2771 52.2C37.1965 52.482 37.0354 52.7237 36.7938 52.925C36.5521 53.1264 36.25 53.1869 35.8875 53.1063ZM15.7083 10.6938C15.3861 10.8952 15.0639 10.9459 14.7417 10.846C14.4194 10.7462 14.1778 10.5343 14.0167 10.2105C13.8556 9.88824 13.8153 9.59663 13.8958 9.33563C13.9764 9.07463 14.1778 8.84263 14.5 8.63963C16.7556 7.4313 19.1118 6.50491 21.5688 5.86047C24.0257 5.21602 26.5229 4.8938 29.0604 4.8938C31.6382 4.8938 34.1556 5.20635 36.6125 5.83147C39.0694 6.45658 41.4458 7.35235 43.7417 8.5188C44.1042 8.72019 44.316 8.96185 44.3773 9.2438C44.4385 9.52574 44.4079 9.80769 44.2854 10.0896C44.1646 10.3716 43.9632 10.5931 43.6813 10.7542C43.3993 10.9153 43.0569 10.8952 42.6542 10.6938C40.5194 9.6063 38.3138 8.77013 36.0373 8.1853C33.7608 7.60047 31.4352 7.30885 29.0604 7.31047C26.7243 7.31047 24.4285 7.58274 22.1729 8.1273C19.9174 8.67185 17.7625 9.52735 15.7083 10.6938ZM22.8375 52.2605C20.4611 49.7632 18.6381 47.2153 17.3686 44.6165C16.099 42.0178 15.4651 38.947 15.4667 35.4042C15.4667 31.7389 16.7958 28.6472 19.4542 26.129C22.1125 23.6109 25.3146 22.3526 29.0604 22.3542C32.8063 22.3542 36.0285 23.6133 38.7271 26.1315C41.4257 28.6496 42.775 31.7405 42.775 35.4042C42.775 35.7667 42.6638 36.0591 42.4415 36.2815C42.2192 36.5038 41.9276 36.6142 41.5667 36.6125C41.2444 36.6125 40.9625 36.5014 40.7208 36.279C40.4792 36.0567 40.3583 35.7651 40.3583 35.4042C40.3583 32.3834 39.2402 29.8555 37.004 27.8207C34.7678 25.7859 32.1199 24.7693 29.0604 24.7709C25.9993 24.7709 23.3708 25.7883 21.1748 27.8231C18.9789 29.858 17.8817 32.385 17.8833 35.4042C17.8833 38.6667 18.4472 41.4362 19.575 43.7127C20.7028 45.9892 22.3542 48.2746 24.5292 50.5688C24.7708 50.8105 24.8917 51.0924 24.8917 51.4146C24.8917 51.7369 24.7708 52.0188 24.5292 52.2605C24.2875 52.5021 24.0056 52.623 23.6833 52.623C23.3611 52.623 23.0792 52.5021 22.8375 52.2605ZM41.0833 48.1521C37.4986 48.1521 34.3868 46.9438 31.7478 44.5271C29.1088 42.1105 27.7901 39.0695 27.7917 35.4042C27.7917 35.082 27.9028 34.8 28.1252 34.5584C28.3475 34.3167 28.6391 34.1959 29 34.1959C29.3625 34.1959 29.6549 34.3167 29.8773 34.5584C30.0996 34.8 30.2099 35.082 30.2083 35.4042C30.2083 38.425 31.2958 40.9021 33.4708 42.8355C35.6458 44.7688 38.1833 45.7355 41.0833 45.7355C41.325 45.7355 41.6674 45.7153 42.1104 45.675C42.5535 45.6348 43.0167 45.5744 43.5 45.4938C43.8625 45.4132 44.1751 45.464 44.4377 45.646C44.7003 45.8281 44.8711 46.0996 44.95 46.4605C45.0306 46.7827 44.9701 47.0646 44.7688 47.3063C44.5674 47.548 44.3056 47.7091 43.9833 47.7896C43.2583 47.991 42.6244 48.1022 42.0814 48.1231C41.5385 48.1441 41.2058 48.1537 41.0833 48.1521Z" fill="#EEF1F6"/>
</svg>
