<svg width="24" height="24" viewBox="0 0 24 24" fill="none" xmlns="http://www.w3.org/2000/svg">
<path d="M15 11.9924C15 12.2955 14.8799 12.5862 14.6661 12.8005C14.4523 13.0148 14.1624 13.1352 13.86 13.1352H2.13997C1.83763 13.1352 1.54768 13.0148 1.33389 12.8005C1.1201 12.5862 1 12.2955 1 11.9924C1 11.6893 1.1201 11.3987 1.33389 11.1843C1.54768 10.97 1.83763 10.8496 2.13997 10.8496H13.86C14.1624 10.8496 14.4523 10.97 14.6661 11.1843C14.8799 11.3987 15 11.6893 15 11.9924ZM2.13997 7.28559H20.86C21.1624 7.28559 21.4523 7.16518 21.6661 6.95087C21.8799 6.73655 22 6.44588 22 6.14279C22 5.83971 21.8799 5.54903 21.6661 5.33472C21.4523 5.1204 21.1624 5 20.86 5L2.13997 5C1.83763 5 1.54768 5.1204 1.33389 5.33472C1.1201 5.54903 1 5.83971 1 6.14279C1 6.44588 1.1201 6.73655 1.33389 6.95087C1.54768 7.16518 1.83763 7.28559 2.13997 7.28559ZM6.86003 16.6898H2.13997C1.83763 16.6898 1.54768 16.8102 1.33389 17.0245C1.1201 17.2388 1 17.5295 1 17.8326C1 18.1357 1.1201 18.4263 1.33389 18.6407C1.54768 18.855 1.83763 18.9754 2.13997 18.9754H6.86003C7.16237 18.9754 7.45232 18.855 7.66611 18.6407C7.8799 18.4263 8 18.1357 8 17.8326C8 17.5295 7.8799 17.2388 7.66611 17.0245C7.45232 16.8102 7.16237 16.6898 6.86003 16.6898ZM22.9665 16.0245C22.8606 15.918 22.7347 15.8334 22.5962 15.7758C22.4576 15.7181 22.309 15.6884 22.159 15.6884C22.009 15.6884 21.8604 15.7181 21.7218 15.7758C21.5833 15.8334 21.4574 15.918 21.3515 16.0245L19.5 17.8806V11.5C19.5 11.1969 19.3799 10.9062 19.1661 10.6919C18.9523 10.4776 18.6624 10.3572 18.36 10.3572C18.0577 10.3572 17.7677 10.4776 17.5539 10.6919C17.3402 10.9062 17.2201 11.1969 17.2201 11.5V17.8806L15.3666 16.0216C15.1525 15.807 14.862 15.6864 14.5592 15.6864C14.2563 15.6864 13.9658 15.807 13.7517 16.0216C13.5375 16.2363 13.4172 16.5275 13.4172 16.8311C13.4172 17.1347 13.5375 17.4259 13.7517 17.6406L17.5516 21.4499C17.6575 21.5565 17.7833 21.641 17.9219 21.6987C18.0605 21.7563 18.209 21.786 18.3591 21.786C18.5091 21.786 18.6577 21.7563 18.7962 21.6987C18.9348 21.641 19.0607 21.5565 19.1666 21.4499L22.9665 17.6406C23.1802 17.4263 23.3003 17.1356 23.3003 16.8326C23.3003 16.5295 23.1802 16.2388 22.9665 16.0245Z" fill="#00A389"/>
</svg>
