<svg width="22" height="22" viewBox="0 0 22 22" fill="none" xmlns="http://www.w3.org/2000/svg">
<path d="M9.5 20.7333L0.700001 11.9333C0.566667 11.7999 0.472 11.6555 0.416 11.4999C0.36 11.3444 0.332445 11.1777 0.333334 10.9999C0.333334 10.8221 0.361334 10.6555 0.417334 10.4999C0.473334 10.3444 0.567556 10.1999 0.700001 10.0666L9.5 1.26658C9.74445 1.02214 10.0502 0.894585 10.4173 0.883918C10.7844 0.873251 11.1009 1.00081 11.3667 1.26658C11.6333 1.51103 11.7724 1.81681 11.784 2.18392C11.7956 2.55103 11.6676 2.86747 11.4 3.13325L4.86667 9.66658H19.7667C20.1444 9.66658 20.4613 9.79459 20.7173 10.0506C20.9733 10.3066 21.1009 10.623 21.1 10.9999C21.1 11.3777 20.9724 11.6946 20.7173 11.9506C20.4622 12.2066 20.1453 12.3341 19.7667 12.3333H4.86667L11.4 18.8666C11.6444 19.111 11.7724 19.4221 11.784 19.7999C11.7956 20.1777 11.6676 20.4888 11.4 20.7333C11.1556 20.9999 10.8444 21.1333 10.4667 21.1333C10.0889 21.1333 9.76667 20.9999 9.5 20.7333Z" fill="#071232"/>
</svg>
