<svg width="29" height="29" viewBox="0 0 29 29" fill="none" xmlns="http://www.w3.org/2000/svg">
<path d="M7.25001 26.0187C6.58543 26.0187 6.0163 25.7819 5.54264 25.3082C5.06897 24.8346 4.83254 24.2658 4.83335 23.602V9.10205C4.83335 8.43747 5.07018 7.86834 5.54385 7.39468C6.01751 6.92101 6.58623 6.68458 7.25001 6.68538H9.66668C9.66668 5.35622 10.1399 4.21837 11.0865 3.27184C12.033 2.32531 13.1708 1.85205 14.5 1.85205C15.8292 1.85205 16.967 2.32531 17.9136 3.27184C18.8601 4.21837 19.3333 5.35622 19.3333 6.68538H21.75C22.4146 6.68538 22.9837 6.92222 23.4574 7.39588C23.9311 7.86955 24.1675 8.43827 24.1667 9.10205V23.602C24.1667 24.2666 23.9298 24.8358 23.4562 25.3094C22.9825 25.7831 22.4138 26.0195 21.75 26.0187H7.25001ZM10.875 12.727C11.2174 12.727 11.5046 12.611 11.7366 12.3791C11.9686 12.147 12.0842 11.8603 12.0833 11.5187V9.10205H9.66668V11.5187C9.66668 11.8611 9.78268 12.1483 10.0147 12.3803C10.2467 12.6123 10.5335 12.7279 10.875 12.727ZM12.0833 6.68538H16.9167C16.9167 6.0208 16.6798 5.45168 16.2062 4.97801C15.7325 4.50434 15.1638 4.26791 14.5 4.26872C13.8354 4.26872 13.2663 4.50555 12.7926 4.97922C12.319 5.45288 12.0825 6.02161 12.0833 6.68538ZM18.125 12.727C18.4674 12.727 18.7546 12.611 18.9866 12.3791C19.2186 12.147 19.3342 11.8603 19.3333 11.5187V9.10205H16.9167V11.5187C16.9167 11.8611 17.0327 12.1483 17.2647 12.3803C17.4967 12.6123 17.7835 12.7279 18.125 12.727Z" fill="white"/>
</svg>