<svg width="15" height="17" viewBox="0 0 15 17" fill="none" xmlns="http://www.w3.org/2000/svg">
<path d="M7.5 10.3838C7.2757 10.3838 7.08754 10.3078 6.93554 10.1558C6.78354 10.0038 6.70781 9.8159 6.70833 9.59212C6.70833 9.36782 6.78434 9.17966 6.93634 9.02766C7.08834 8.87566 7.27622 8.79993 7.5 8.80046C7.72431 8.80046 7.91246 8.87646 8.06446 9.02846C8.21646 9.18046 8.2922 9.36834 8.29167 9.59212C8.29167 9.81643 8.21567 10.0046 8.06367 10.1566C7.91167 10.3086 7.72378 10.3843 7.5 10.3838ZM4.33333 10.3838C4.10903 10.3838 3.92088 10.3078 3.76888 10.1558C3.61688 10.0038 3.54114 9.8159 3.54167 9.59212C3.54167 9.36782 3.61767 9.17966 3.76967 9.02766C3.92167 8.87566 4.10956 8.79993 4.33333 8.80046C4.55764 8.80046 4.74579 8.87646 4.89779 9.02846C5.04979 9.18046 5.12553 9.36834 5.125 9.59212C5.125 9.81643 5.049 10.0046 4.897 10.1566C4.745 10.3086 4.55711 10.3843 4.33333 10.3838ZM10.6667 10.3838C10.4424 10.3838 10.2542 10.3078 10.1022 10.1558C9.95021 10.0038 9.87447 9.8159 9.875 9.59212C9.875 9.36782 9.951 9.17966 10.103 9.02766C10.255 8.87566 10.4429 8.79993 10.6667 8.80046C10.891 8.80046 11.0791 8.87646 11.2311 9.02846C11.3831 9.18046 11.4589 9.36834 11.4583 9.59212C11.4583 9.81643 11.3823 10.0046 11.2303 10.1566C11.0783 10.3086 10.8904 10.3843 10.6667 10.3838ZM7.5 13.5505C7.2757 13.5505 7.08754 13.4745 6.93554 13.3225C6.78354 13.1705 6.70781 12.9826 6.70833 12.7588C6.70833 12.5345 6.78434 12.3463 6.93634 12.1943C7.08834 12.0423 7.27622 11.9666 7.5 11.9671C7.72431 11.9671 7.91246 12.0431 8.06446 12.1951C8.21646 12.3471 8.2922 12.535 8.29167 12.7588C8.29167 12.9831 8.21567 13.1712 8.06367 13.3232C7.91167 13.4752 7.72378 13.551 7.5 13.5505ZM4.33333 13.5505C4.10903 13.5505 3.92088 13.4745 3.76888 13.3225C3.61688 13.1705 3.54114 12.9826 3.54167 12.7588C3.54167 12.5345 3.61767 12.3463 3.76967 12.1943C3.92167 12.0423 4.10956 11.9666 4.33333 11.9671C4.55764 11.9671 4.74579 12.0431 4.89779 12.1951C5.04979 12.3471 5.12553 12.535 5.125 12.7588C5.125 12.9831 5.049 13.1712 4.897 13.3232C4.745 13.4752 4.55711 13.551 4.33333 13.5505ZM10.6667 13.5505C10.4424 13.5505 10.2542 13.4745 10.1022 13.3225C9.95021 13.1705 9.87447 12.9826 9.875 12.7588C9.875 12.5345 9.951 12.3463 10.103 12.1943C10.255 12.0423 10.4429 11.9666 10.6667 11.9671C10.891 11.9671 11.0791 12.0431 11.2311 12.1951C11.3831 12.3471 11.4589 12.535 11.4583 12.7588C11.4583 12.9831 11.3823 13.1712 11.2303 13.3232C11.0783 13.4752 10.8904 13.551 10.6667 13.5505ZM1.95833 16.7171C1.52292 16.7171 1.15004 16.562 0.83971 16.2516C0.529376 15.9413 0.374474 15.5687 0.375001 15.1338V4.05046C0.375001 3.61504 0.530168 3.24216 0.840501 2.93183C1.15083 2.6215 1.52345 2.46659 1.95833 2.46712H2.75V0.883789H4.33333V2.46712H10.6667V0.883789H12.25V2.46712H13.0417C13.4771 2.46712 13.85 2.62229 14.1603 2.93262C14.4706 3.24296 14.6255 3.61557 14.625 4.05046V15.1338C14.625 15.5692 14.4698 15.9421 14.1595 16.2524C13.8492 16.5627 13.4766 16.7176 13.0417 16.7171H1.95833ZM1.95833 15.1338H13.0417V7.21712H1.95833V15.1338Z" fill="#00A389"/>
</svg>