<svg width="20" height="30" viewBox="0 0 20 30" fill="none" xmlns="http://www.w3.org/2000/svg">
<path fill-rule="evenodd" clip-rule="evenodd" d="M16.5769 0.769043H3.42308C2.64783 0.769043 1.90433 1.07701 1.35615 1.62519C0.807966 2.17338 0.5 2.91687 0.5 3.69212V27.0767C0.5 27.852 0.807966 28.5955 1.35615 29.1437C1.90433 29.6918 2.64783 29.9998 3.42308 29.9998H16.5769C17.3522 29.9998 18.0957 29.6918 18.6439 29.1437C19.192 28.5955 19.5 27.852 19.5 27.0767V3.69212C19.5 2.91687 19.192 2.17338 18.6439 1.62519C18.0957 1.07701 17.3522 0.769043 16.5769 0.769043ZM3.42308 27.0767V3.69212H16.5769V27.0767H3.42308Z" fill="white"/>
<path fill-rule="evenodd" clip-rule="evenodd" d="M6.34608 5.88439C6.34608 5.49677 6.50007 5.12502 6.77416 4.85093C7.04825 4.57683 7.42 4.42285 7.80762 4.42285H12.1922C12.5799 4.42285 12.9516 4.57683 13.2257 4.85093C13.4998 5.12502 13.6538 5.49677 13.6538 5.88439C13.6538 6.27201 13.4998 6.64376 13.2257 6.91785C12.9516 7.19195 12.5799 7.34593 12.1922 7.34593H7.80762C7.42 7.34593 7.04825 7.19195 6.77416 6.91785C6.50007 6.64376 6.34608 6.27201 6.34608 5.88439Z" fill="white"/>
<path d="M5.67763 16.5652C5.55921 16.4492 5.5 16.3119 5.5 16.1532C5.5 15.9945 5.55921 15.8573 5.67763 15.7418L9.58553 11.928C9.64474 11.8698 9.70888 11.8288 9.77796 11.8049C9.84704 11.781 9.92105 11.7691 10 11.7691M5.67763 16.5652L14.4967 15.5626L14.3224 15.7418M5.67763 16.5652C5.79605 16.6808 5.93421 16.7385 6.09211 16.7385C6.25 16.7385 6.38816 16.6808 6.50658 16.5652L9.15789 13.9777L5.67763 16.5652ZM10 11.7691L9.99878 11.5191C9.99897 11.5191 9.99917 11.5191 9.99936 11.5191C9.99957 11.5191 9.99979 11.5191 10 11.5191V11.7691ZM10 11.7691C10.0789 11.7687 10.153 11.7806 10.222 11.8049C10.2911 11.8291 10.3553 11.8702 10.4145 11.928L14.3224 15.7418M14.3224 15.7418L14.497 15.5628L14.4968 15.5627C14.6615 15.7229 14.75 15.9238 14.75 16.1532C14.75 16.3826 14.6614 16.5836 14.497 16.7441C14.3343 16.9028 14.1344 16.9885 13.9079 16.9885C13.6814 16.9885 13.4814 16.9028 13.3188 16.7441L10.8421 14.327M14.3224 15.7418C14.4408 15.8569 14.5 15.9941 14.5 16.1532C14.5 16.3123 14.4408 16.4496 14.3224 16.5652C14.2039 16.6808 14.0658 16.7385 13.9079 16.7385C13.75 16.7385 13.6118 16.6808 13.4934 16.5652L10.8421 13.9777V14.327M10.8421 14.327L10.5921 14.0831L9.41068 11.7493C9.41056 11.7494 9.41044 11.7495 9.41032 11.7496L5.50302 15.5628C5.33869 15.7232 5.25 15.924 5.25 16.1532C5.25 16.3824 5.33865 16.5832 5.50272 16.7438L5.50302 16.7441L5.50302 16.7441C5.66566 16.9028 5.86557 16.9885 6.09211 16.9885C6.31864 16.9885 6.51855 16.9028 6.68119 16.7441L9.15789 14.327V20.2056C9.15789 20.4345 9.24057 20.637 9.40798 20.793C9.5717 20.9456 9.7747 21.019 10 21.019C10.229 21.019 10.4336 20.9408 10.5968 20.7815C10.7602 20.622 10.8426 20.4196 10.8421 20.191M10.8421 14.327V20.191M10.8421 20.191V20.1912H10.5921L10.8421 20.1906C10.8421 20.1907 10.8421 20.1909 10.8421 20.191Z" fill="white" stroke="white" stroke-width="0.5"/>
</svg>
