<svg width="26" height="26" viewBox="0 0 26 26" fill="none" xmlns="http://www.w3.org/2000/svg">
<path d="M9.71875 0.96875H3.15625C2.57609 0.96875 2.01969 1.19922 1.60945 1.60945C1.19922 2.01969 0.96875 2.57609 0.96875 3.15625V9.71875C0.96875 10.2989 1.19922 10.8553 1.60945 11.2655C2.01969 11.6758 2.57609 11.9062 3.15625 11.9062H9.71875C10.2989 11.9062 10.8553 11.6758 11.2655 11.2655C11.6758 10.8553 11.9062 10.2989 11.9062 9.71875V3.15625C11.9062 2.57609 11.6758 2.01969 11.2655 1.60945C10.8553 1.19922 10.2989 0.96875 9.71875 0.96875ZM9.71875 9.71875H3.15625V3.15625H9.71875V9.71875ZM9.71875 14.0938H3.15625C2.57609 14.0938 2.01969 14.3242 1.60945 14.7345C1.19922 15.1447 0.96875 15.7011 0.96875 16.2812V22.8438C0.96875 23.4239 1.19922 23.9803 1.60945 24.3905C2.01969 24.8008 2.57609 25.0312 3.15625 25.0312H9.71875C10.2989 25.0312 10.8553 24.8008 11.2655 24.3905C11.6758 23.9803 11.9062 23.4239 11.9062 22.8438V16.2812C11.9062 15.7011 11.6758 15.1447 11.2655 14.7345C10.8553 14.3242 10.2989 14.0938 9.71875 14.0938ZM9.71875 22.8438H3.15625V16.2812H9.71875V22.8438ZM22.8438 0.96875H16.2812C15.7011 0.96875 15.1447 1.19922 14.7345 1.60945C14.3242 2.01969 14.0938 2.57609 14.0938 3.15625V9.71875C14.0938 10.2989 14.3242 10.8553 14.7345 11.2655C15.1447 11.6758 15.7011 11.9062 16.2812 11.9062H22.8438C23.4239 11.9062 23.9803 11.6758 24.3905 11.2655C24.8008 10.8553 25.0312 10.2989 25.0312 9.71875V3.15625C25.0312 2.57609 24.8008 2.01969 24.3905 1.60945C23.9803 1.19922 23.4239 0.96875 22.8438 0.96875ZM22.8438 9.71875H16.2812V3.15625H22.8438V9.71875ZM14.0938 19.5625V15.1875C14.0938 14.8974 14.209 14.6192 14.4141 14.4141C14.6192 14.209 14.8974 14.0938 15.1875 14.0938C15.4776 14.0938 15.7558 14.209 15.9609 14.4141C16.166 14.6192 16.2812 14.8974 16.2812 15.1875V19.5625C16.2812 19.8526 16.166 20.1308 15.9609 20.3359C15.7558 20.541 15.4776 20.6562 15.1875 20.6562C14.8974 20.6562 14.6192 20.541 14.4141 20.3359C14.209 20.1308 14.0938 19.8526 14.0938 19.5625ZM25.0312 17.375C25.0312 17.6651 24.916 17.9433 24.7109 18.1484C24.5058 18.3535 24.2276 18.4688 23.9375 18.4688H20.6562V23.9375C20.6562 24.2276 20.541 24.5058 20.3359 24.7109C20.1308 24.916 19.8526 25.0312 19.5625 25.0312H15.1875C14.8974 25.0312 14.6192 24.916 14.4141 24.7109C14.209 24.5058 14.0938 24.2276 14.0938 23.9375C14.0938 23.6474 14.209 23.3692 14.4141 23.1641C14.6192 22.959 14.8974 22.8438 15.1875 22.8438H18.4688V15.1875C18.4688 14.8974 18.584 14.6192 18.7891 14.4141C18.9942 14.209 19.2724 14.0938 19.5625 14.0938C19.8526 14.0938 20.1308 14.209 20.3359 14.4141C20.541 14.6192 20.6562 14.8974 20.6562 15.1875V16.2812H23.9375C24.2276 16.2812 24.5058 16.3965 24.7109 16.6016C24.916 16.8067 25.0312 17.0849 25.0312 17.375ZM25.0312 21.75V23.9375C25.0312 24.2276 24.916 24.5058 24.7109 24.7109C24.5058 24.916 24.2276 25.0312 23.9375 25.0312C23.6474 25.0312 23.3692 24.916 23.1641 24.7109C22.959 24.5058 22.8438 24.2276 22.8438 23.9375V21.75C22.8438 21.4599 22.959 21.1817 23.1641 20.9766C23.3692 20.7715 23.6474 20.6562 23.9375 20.6562C24.2276 20.6562 24.5058 20.7715 24.7109 20.9766C24.916 21.1817 25.0312 21.4599 25.0312 21.75Z" fill="white"/>
</svg>
