<svg width="305" height="74" viewBox="0 0 305 74" fill="none" xmlns="http://www.w3.org/2000/svg">
<g filter="url(#filter0_d_0_1)">
<path fill-rule="evenodd" clip-rule="evenodd" d="M197.243 59.6063H286.399C290.818 59.6063 294.399 56.0246 294.399 51.6063V14C294.399 9.58172 290.818 6 286.399 6H197.243V59.6063Z" fill="#BFE8E1"/>
<path fill-rule="evenodd" clip-rule="evenodd" d="M101.567 6H18.8896C14.4714 6 10.8896 9.58172 10.8896 14V51.6063C10.8896 56.0246 14.4714 59.6063 18.8896 59.6063H101.567V6Z" fill="#BFE8E1"/>
<path fill-rule="evenodd" clip-rule="evenodd" d="M103.049 59.6063V6H195.343V59.6063H103.049Z" fill="#BFE8E1"/>
</g>
<path d="M31.4852 52.604C30.6619 52.604 29.9837 52.4264 29.4507 52.071C28.922 51.7157 28.597 51.2217 28.4757 50.589L29.4507 50.4265C29.5547 50.8252 29.7909 51.1437 30.1592 51.382C30.5319 51.616 30.9912 51.733 31.5372 51.733C32.0702 51.733 32.4905 51.6225 32.7982 51.4015C33.1059 51.1762 33.2597 50.8707 33.2597 50.485C33.2597 50.2684 33.2099 50.0929 33.1102 49.9585C33.0149 49.8199 32.8177 49.692 32.5187 49.575C32.2197 49.458 31.7734 49.3194 31.1797 49.159C30.5427 48.9857 30.0444 48.8124 29.6847 48.639C29.325 48.4657 29.0694 48.2664 28.9177 48.041C28.766 47.8114 28.6902 47.5319 28.6902 47.2025C28.6902 46.8039 28.8029 46.455 29.0282 46.156C29.2535 45.8527 29.5655 45.6187 29.9642 45.454C30.3629 45.285 30.8265 45.2005 31.3552 45.2005C31.8839 45.2005 32.3562 45.2872 32.7722 45.4605C33.1925 45.6295 33.5305 45.8679 33.7862 46.1755C34.0419 46.4832 34.1935 46.8407 34.2412 47.248L33.2662 47.4235C33.2012 47.0119 32.9954 46.6869 32.6487 46.4485C32.3064 46.2059 31.8709 46.0802 31.3422 46.0715C30.8439 46.0585 30.4387 46.1539 30.1267 46.3575C29.8147 46.5569 29.6587 46.8234 29.6587 47.157C29.6587 47.3434 29.715 47.5037 29.8277 47.638C29.9404 47.768 30.144 47.8915 30.4387 48.0085C30.7377 48.1255 31.1624 48.2534 31.7127 48.392C32.3584 48.5567 32.8654 48.73 33.2337 48.912C33.602 49.094 33.8642 49.3085 34.0202 49.5555C34.1762 49.8025 34.2542 50.108 34.2542 50.472C34.2542 51.135 34.0072 51.6572 33.5132 52.0385C33.0235 52.4155 32.3475 52.604 31.4852 52.604ZM40.7658 52.4155V48.834C40.7658 48.444 40.7289 48.0865 40.6553 47.7615C40.5816 47.4322 40.4624 47.1462 40.2978 46.9035C40.1374 46.6565 39.9273 46.4659 39.6673 46.3315C39.4116 46.1972 39.0996 46.13 38.7313 46.13C38.3933 46.13 38.0943 46.1885 37.8343 46.3055C37.5786 46.4225 37.3619 46.5915 37.1843 46.8125C37.0109 47.0292 36.8788 47.2935 36.7878 47.6055C36.6968 47.9175 36.6513 48.2729 36.6513 48.6715L35.9753 48.522C35.9753 47.8027 36.1009 47.1982 36.3523 46.7085C36.6036 46.2189 36.9503 45.8484 37.3923 45.597C37.8343 45.3457 38.3413 45.22 38.9133 45.22C39.3336 45.22 39.6998 45.285 40.0118 45.415C40.3281 45.545 40.5946 45.7205 40.8113 45.9415C41.0323 46.1625 41.2099 46.416 41.3443 46.702C41.4786 46.9837 41.5761 47.2849 41.6368 47.6055C41.6974 47.9219 41.7278 48.2382 41.7278 48.5545V52.4155H40.7658ZM35.6893 52.4155V43.0555H36.5538V48.34H36.6513V52.4155H35.6893ZM45.423 52.6105C44.8944 52.6105 44.4502 52.5152 44.0905 52.3245C43.7352 52.1339 43.4687 51.8804 43.291 51.564C43.1133 51.2477 43.0245 50.9032 43.0245 50.5305C43.0245 50.1492 43.1003 49.8242 43.252 49.5555C43.408 49.2825 43.6182 49.0594 43.8825 48.886C44.1512 48.7127 44.461 48.5805 44.812 48.4895C45.1674 48.4029 45.5595 48.327 45.9885 48.262C46.4219 48.1927 46.8444 48.1342 47.256 48.0865C47.672 48.0345 48.036 47.9847 48.348 47.937L48.01 48.145C48.023 47.4517 47.8887 46.9382 47.607 46.6045C47.3254 46.2709 46.8357 46.104 46.138 46.104C45.657 46.104 45.2497 46.2124 44.916 46.429C44.5867 46.6457 44.3549 46.988 44.2205 47.456L43.291 47.183C43.4513 46.5547 43.7742 46.0672 44.2595 45.7205C44.7449 45.3739 45.3754 45.2005 46.151 45.2005C46.7924 45.2005 47.3362 45.3219 47.7825 45.5645C48.2332 45.8029 48.5517 46.1495 48.738 46.6045C48.8247 46.8082 48.881 47.0357 48.907 47.287C48.933 47.5384 48.946 47.794 48.946 48.054V52.4155H48.0945V50.654L48.3415 50.758C48.1032 51.3604 47.7327 51.8197 47.23 52.136C46.7274 52.4524 46.125 52.6105 45.423 52.6105ZM45.5335 51.785C45.9799 51.785 46.3699 51.7049 46.7035 51.5445C47.0372 51.3842 47.3059 51.1654 47.5095 50.888C47.7132 50.6064 47.8454 50.29 47.906 49.939C47.958 49.7137 47.9862 49.4667 47.9905 49.198C47.9949 48.925 47.997 48.7214 47.997 48.587L48.361 48.7755C48.036 48.8189 47.6829 48.8622 47.3015 48.9055C46.9245 48.9489 46.5519 48.9987 46.1835 49.055C45.8195 49.1114 45.4902 49.1785 45.1955 49.2565C44.9962 49.3129 44.8034 49.393 44.617 49.497C44.4307 49.5967 44.2768 49.731 44.1555 49.9C44.0385 50.069 43.98 50.2792 43.98 50.5305C43.98 50.7342 44.0298 50.9314 44.1295 51.122C44.2335 51.3127 44.3982 51.4709 44.6235 51.5965C44.8532 51.7222 45.1565 51.785 45.5335 51.785ZM50.6381 52.4155V45.3955H51.4961V47.0855L51.3271 46.8645C51.4051 46.6565 51.507 46.4659 51.6326 46.2925C51.7583 46.1149 51.8948 45.9697 52.0421 45.857C52.2241 45.6967 52.4365 45.5754 52.6791 45.493C52.9218 45.4064 53.1666 45.3565 53.4136 45.3435C53.6606 45.3262 53.886 45.3435 54.0896 45.3955V46.2925C53.834 46.2275 53.5545 46.2124 53.2511 46.247C52.9478 46.2817 52.6683 46.403 52.4126 46.611C52.1786 46.793 52.0031 47.0119 51.8861 47.2675C51.7691 47.5189 51.6911 47.7875 51.6521 48.0735C51.6131 48.3552 51.5936 48.6347 51.5936 48.912V52.4155H50.6381ZM58.1663 52.6105C57.4816 52.6105 56.8879 52.4589 56.3853 52.1555C55.8869 51.8522 55.4991 51.4254 55.2218 50.875C54.9444 50.3247 54.8058 49.679 54.8058 48.938C54.8058 48.171 54.9423 47.508 55.2153 46.949C55.4883 46.39 55.8718 45.9589 56.3658 45.6555C56.8641 45.3522 57.4513 45.2005 58.1273 45.2005C58.8206 45.2005 59.4121 45.3609 59.9018 45.6815C60.3914 45.9979 60.7619 46.4529 61.0133 47.0465C61.2646 47.6402 61.3794 48.3487 61.3578 49.172H60.3828V48.834C60.3654 47.924 60.1683 47.2372 59.7913 46.7735C59.4186 46.3099 58.8726 46.078 58.1533 46.078C57.3993 46.078 56.8208 46.3229 56.4178 46.8125C56.0191 47.3022 55.8198 47.9999 55.8198 48.9055C55.8198 49.7895 56.0191 50.4764 56.4178 50.966C56.8208 51.4514 57.3906 51.694 58.1273 51.694C58.6299 51.694 59.0676 51.5792 59.4403 51.3495C59.8173 51.1155 60.1141 50.7797 60.3308 50.342L61.2213 50.6865C60.9439 51.2975 60.5344 51.772 59.9928 52.11C59.4554 52.4437 58.8466 52.6105 58.1663 52.6105ZM55.4818 49.172V48.3725H60.8443V49.172H55.4818ZM68.5553 52.6105C67.9096 52.6105 67.3636 52.448 66.9173 52.123C66.471 51.7937 66.133 51.3495 65.9033 50.7905C65.6736 50.2272 65.5588 49.5967 65.5588 48.899C65.5588 48.1884 65.6736 47.5557 65.9033 47.001C66.1373 46.442 66.4796 46.0022 66.9303 45.6815C67.381 45.3609 67.9356 45.2005 68.5943 45.2005C69.2356 45.2005 69.786 45.363 70.2453 45.688C70.7046 46.013 71.0556 46.455 71.2983 47.014C71.5453 47.573 71.6688 48.2014 71.6688 48.899C71.6688 49.601 71.5453 50.2315 71.2983 50.7905C71.0513 51.3495 70.696 51.7937 70.2323 52.123C69.7686 52.448 69.2096 52.6105 68.5553 52.6105ZM65.3963 55.5355V45.3955H66.2543V50.68H66.3583V55.5355H65.3963ZM68.4578 51.72C68.9475 51.72 69.3548 51.5965 69.6798 51.3495C70.0048 51.1025 70.2475 50.7667 70.4078 50.342C70.5725 49.913 70.6548 49.432 70.6548 48.899C70.6548 48.3704 70.5746 47.8937 70.4143 47.469C70.254 47.0444 70.0091 46.7085 69.6798 46.4615C69.3548 46.2145 68.941 46.091 68.4383 46.091C67.9486 46.091 67.5413 46.2102 67.2163 46.4485C66.8956 46.6869 66.6551 47.0184 66.4948 47.443C66.3345 47.8634 66.2543 48.3487 66.2543 48.899C66.2543 49.4407 66.3345 49.926 66.4948 50.355C66.6551 50.7797 66.8978 51.1134 67.2228 51.356C67.5478 51.5987 67.9595 51.72 68.4578 51.72ZM75.8197 52.6105C75.1653 52.6105 74.6063 52.448 74.1427 52.123C73.679 51.7937 73.3237 51.3495 73.0767 50.7905C72.8297 50.2315 72.7062 49.601 72.7062 48.899C72.7062 48.2014 72.8275 47.573 73.0702 47.014C73.3172 46.455 73.6703 46.013 74.1297 45.688C74.589 45.363 75.1393 45.2005 75.7807 45.2005C76.4393 45.2005 76.994 45.3609 77.4447 45.6815C77.8953 46.0022 78.2355 46.442 78.4652 47.001C78.6992 47.5557 78.8162 48.1884 78.8162 48.899C78.8162 49.5967 78.7013 50.2272 78.4717 50.7905C78.242 51.3495 77.904 51.7937 77.4577 52.123C77.0113 52.448 76.4653 52.6105 75.8197 52.6105ZM75.9172 51.72C76.4155 51.72 76.8272 51.5987 77.1522 51.356C77.4772 51.1134 77.7198 50.7797 77.8802 50.355C78.0405 49.926 78.1207 49.4407 78.1207 48.899C78.1207 48.3487 78.0405 47.8634 77.8802 47.443C77.7198 47.0184 77.4772 46.6869 77.1522 46.4485C76.8315 46.2102 76.4263 46.091 75.9367 46.091C75.434 46.091 75.018 46.2145 74.6887 46.4615C74.3593 46.7085 74.1145 47.0444 73.9542 47.469C73.7982 47.8937 73.7202 48.3704 73.7202 48.899C73.7202 49.432 73.8003 49.913 73.9607 50.342C74.1253 50.7667 74.3702 51.1025 74.6952 51.3495C75.0202 51.5965 75.4275 51.72 75.9172 51.72ZM78.1207 52.4155V47.131H78.0167V43.0555H78.9787V52.4155H78.1207ZM81.4977 52.4155V44.8755C81.4977 44.6935 81.5064 44.5137 81.5237 44.336C81.5454 44.1584 81.5865 43.9894 81.6472 43.829C81.7079 43.6644 81.8032 43.5127 81.9332 43.374C82.0762 43.218 82.2322 43.1054 82.4012 43.036C82.5702 42.9624 82.7457 42.9147 82.9277 42.893C83.114 42.8714 83.296 42.8605 83.4737 42.8605H84.3707V43.6665H83.5387C83.1747 43.6665 82.9017 43.7554 82.7197 43.933C82.542 44.1107 82.4532 44.3902 82.4532 44.7715V52.4155H81.4977ZM80.2822 46.2145V45.3955H84.3707V46.2145H80.2822Z" fill="#3B476A"/>
<path d="M124.339 53.7119C123.516 53.7119 122.837 53.5343 122.304 53.1789C121.776 52.8236 121.451 52.3296 121.329 51.6969L122.304 51.5344C122.408 51.9331 122.645 52.2516 123.013 52.4899C123.386 52.7239 123.845 52.8409 124.391 52.8409C124.924 52.8409 125.344 52.7304 125.652 52.5094C125.96 52.2841 126.113 51.9786 126.113 51.5929C126.113 51.3763 126.064 51.2008 125.964 51.0664C125.869 50.9278 125.671 50.7999 125.372 50.6829C125.073 50.5659 124.627 50.4273 124.033 50.2669C123.396 50.0936 122.898 49.9203 122.538 49.7469C122.179 49.5736 121.923 49.3743 121.771 49.1489C121.62 48.9193 121.544 48.6398 121.544 48.3104C121.544 47.9118 121.657 47.5629 121.882 47.2639C122.107 46.9606 122.419 46.7266 122.818 46.5619C123.217 46.3929 123.68 46.3084 124.209 46.3084C124.738 46.3084 125.21 46.3951 125.626 46.5684C126.046 46.7374 126.384 46.9758 126.64 47.2834C126.896 47.5911 127.047 47.9486 127.095 48.3559L126.12 48.5314C126.055 48.1198 125.849 47.7948 125.502 47.5564C125.16 47.3138 124.725 47.1881 124.196 47.1794C123.698 47.1664 123.292 47.2618 122.98 47.4654C122.668 47.6648 122.512 47.9313 122.512 48.2649C122.512 48.4513 122.569 48.6116 122.681 48.7459C122.794 48.8759 122.998 48.9994 123.292 49.1164C123.591 49.2334 124.016 49.3613 124.566 49.4999C125.212 49.6646 125.719 49.8379 126.087 50.0199C126.456 50.2019 126.718 50.4164 126.874 50.6634C127.03 50.9104 127.108 51.2159 127.108 51.5799C127.108 52.2429 126.861 52.7651 126.367 53.1464C125.877 53.5234 125.201 53.7119 124.339 53.7119ZM133.62 53.5234V49.9419C133.62 49.5519 133.583 49.1944 133.509 48.8694C133.435 48.5401 133.316 48.2541 133.152 48.0114C132.991 47.7644 132.781 47.5738 132.521 47.4394C132.265 47.3051 131.953 47.2379 131.585 47.2379C131.247 47.2379 130.948 47.2964 130.688 47.4134C130.432 47.5304 130.216 47.6994 130.038 47.9204C129.865 48.1371 129.733 48.4014 129.642 48.7134C129.551 49.0254 129.505 49.3808 129.505 49.7794L128.829 49.6299C128.829 48.9106 128.955 48.3061 129.206 47.8164C129.457 47.3268 129.804 46.9563 130.246 46.7049C130.688 46.4536 131.195 46.3279 131.767 46.3279C132.187 46.3279 132.554 46.3929 132.866 46.5229C133.182 46.6529 133.448 46.8284 133.665 47.0494C133.886 47.2704 134.064 47.5239 134.198 47.8099C134.332 48.0916 134.43 48.3928 134.491 48.7134C134.551 49.0298 134.582 49.3461 134.582 49.6624V53.5234H133.62ZM128.543 53.5234V44.1634H129.408V49.4479H129.505V53.5234H128.543ZM138.277 53.7184C137.748 53.7184 137.304 53.6231 136.944 53.4324C136.589 53.2418 136.322 52.9883 136.145 52.6719C135.967 52.3556 135.878 52.0111 135.878 51.6384C135.878 51.2571 135.954 50.9321 136.106 50.6634C136.262 50.3904 136.472 50.1673 136.736 49.9939C137.005 49.8206 137.315 49.6884 137.666 49.5974C138.021 49.5108 138.413 49.4349 138.842 49.3699C139.276 49.3006 139.698 49.2421 140.11 49.1944C140.526 49.1424 140.89 49.0926 141.202 49.0449L140.864 49.2529C140.877 48.5596 140.742 48.0461 140.461 47.7124C140.179 47.3788 139.689 47.2119 138.992 47.2119C138.511 47.2119 138.103 47.3203 137.77 47.5369C137.44 47.7536 137.209 48.0959 137.074 48.5639L136.145 48.2909C136.305 47.6626 136.628 47.1751 137.113 46.8284C137.599 46.4818 138.229 46.3084 139.005 46.3084C139.646 46.3084 140.19 46.4298 140.636 46.6724C141.087 46.9108 141.405 47.2574 141.592 47.7124C141.678 47.9161 141.735 48.1436 141.761 48.3949C141.787 48.6463 141.8 48.9019 141.8 49.1619V53.5234H140.948V51.7619L141.195 51.8659C140.957 52.4683 140.586 52.9276 140.084 53.2439C139.581 53.5603 138.979 53.7184 138.277 53.7184ZM138.387 52.8929C138.834 52.8929 139.224 52.8128 139.557 52.6524C139.891 52.4921 140.16 52.2733 140.363 51.9959C140.567 51.7143 140.699 51.3979 140.76 51.0469C140.812 50.8216 140.84 50.5746 140.844 50.3059C140.849 50.0329 140.851 49.8293 140.851 49.6949L141.215 49.8834C140.89 49.9268 140.537 49.9701 140.155 50.0134C139.778 50.0568 139.406 50.1066 139.037 50.1629C138.673 50.2193 138.344 50.2864 138.049 50.3644C137.85 50.4208 137.657 50.5009 137.471 50.6049C137.284 50.7046 137.131 50.8389 137.009 51.0079C136.892 51.1769 136.834 51.3871 136.834 51.6384C136.834 51.8421 136.884 52.0393 136.983 52.2299C137.087 52.4206 137.252 52.5788 137.477 52.7044C137.707 52.8301 138.01 52.8929 138.387 52.8929ZM143.492 53.5234V46.5034H144.35V48.1934L144.181 47.9724C144.259 47.7644 144.361 47.5738 144.486 47.4004C144.612 47.2228 144.749 47.0776 144.896 46.9649C145.078 46.8046 145.29 46.6833 145.533 46.6009C145.776 46.5143 146.02 46.4644 146.267 46.4514C146.514 46.4341 146.74 46.4514 146.943 46.5034V47.4004C146.688 47.3354 146.408 47.3203 146.105 47.3549C145.802 47.3896 145.522 47.5109 145.266 47.7189C145.032 47.9009 144.857 48.1198 144.74 48.3754C144.623 48.6268 144.545 48.8954 144.506 49.1814C144.467 49.4631 144.447 49.7426 144.447 50.0199V53.5234H143.492ZM151.02 53.7184C150.335 53.7184 149.742 53.5668 149.239 53.2634C148.741 52.9601 148.353 52.5333 148.076 51.9829C147.798 51.4326 147.66 50.7869 147.66 50.0459C147.66 49.2789 147.796 48.6159 148.069 48.0569C148.342 47.4979 148.726 47.0668 149.22 46.7634C149.718 46.4601 150.305 46.3084 150.981 46.3084C151.674 46.3084 152.266 46.4688 152.756 46.7894C153.245 47.1058 153.616 47.5608 153.867 48.1544C154.118 48.7481 154.233 49.4566 154.212 50.2799H153.237V49.9419C153.219 49.0319 153.022 48.3451 152.645 47.8814C152.272 47.4178 151.726 47.1859 151.007 47.1859C150.253 47.1859 149.675 47.4308 149.272 47.9204C148.873 48.4101 148.674 49.1078 148.674 50.0134C148.674 50.8974 148.873 51.5843 149.272 52.0739C149.675 52.5593 150.244 52.8019 150.981 52.8019C151.484 52.8019 151.921 52.6871 152.294 52.4574C152.671 52.2234 152.968 51.8876 153.185 51.4499L154.075 51.7944C153.798 52.4054 153.388 52.8799 152.847 53.2179C152.309 53.5516 151.7 53.7184 151.02 53.7184ZM148.336 50.2799V49.4804H153.698V50.2799H148.336ZM158.387 53.5234V43.9684H159.342V53.5234H158.387ZM161.421 45.1709V44.0984H162.376V45.1709H161.421ZM161.421 53.5234V46.5034H162.376V53.5234H161.421ZM169.395 53.5234V49.9419C169.395 49.5519 169.358 49.1944 169.284 48.8694C169.211 48.5401 169.092 48.2541 168.927 48.0114C168.767 47.7644 168.556 47.5738 168.296 47.4394C168.041 47.3051 167.729 47.2379 167.36 47.2379C167.022 47.2379 166.723 47.2964 166.463 47.4134C166.208 47.5304 165.991 47.6994 165.813 47.9204C165.64 48.1371 165.508 48.4014 165.417 48.7134C165.326 49.0254 165.28 49.3808 165.28 49.7794L164.604 49.6299C164.604 48.9106 164.73 48.3061 164.981 47.8164C165.233 47.3268 165.579 46.9563 166.021 46.7049C166.463 46.4536 166.97 46.3279 167.542 46.3279C167.963 46.3279 168.329 46.3929 168.641 46.5229C168.957 46.6529 169.224 46.8284 169.44 47.0494C169.661 47.2704 169.839 47.5239 169.973 47.8099C170.108 48.0916 170.205 48.3928 170.266 48.7134C170.327 49.0298 170.357 49.3461 170.357 49.6624V53.5234H169.395ZM164.318 53.5234V46.5034H165.183V48.2324H165.28V53.5234H164.318ZM172.037 53.5234L172.044 44.1634H173.006V49.8834L176.139 46.5034H177.413L174.124 50.0134L177.842 53.5234H176.451L173.006 50.1434V53.5234H172.037Z" fill="#3B476A"/>
<path d="M219.529 53.5659C218.706 53.5659 218.028 53.3883 217.495 53.0329C216.966 52.6776 216.641 52.1836 216.52 51.5509L217.495 51.3884C217.599 51.7871 217.835 52.1056 218.203 52.3439C218.576 52.5779 219.035 52.6949 219.581 52.6949C220.114 52.6949 220.534 52.5844 220.842 52.3634C221.15 52.1381 221.304 51.8326 221.304 51.4469C221.304 51.2303 221.254 51.0548 221.154 50.9204C221.059 50.7818 220.862 50.6539 220.563 50.5369C220.264 50.4199 219.817 50.2813 219.224 50.1209C218.587 49.9476 218.088 49.7743 217.729 49.6009C217.369 49.4276 217.113 49.2283 216.962 49.0029C216.81 48.7733 216.734 48.4938 216.734 48.1644C216.734 47.7658 216.847 47.4169 217.072 47.1179C217.297 46.8146 217.609 46.5806 218.008 46.4159C218.407 46.2469 218.87 46.1624 219.399 46.1624C219.928 46.1624 220.4 46.2491 220.816 46.4224C221.236 46.5914 221.574 46.8298 221.83 47.1374C222.086 47.4451 222.237 47.8026 222.285 48.2099L221.31 48.3854C221.245 47.9738 221.039 47.6488 220.693 47.4104C220.35 47.1678 219.915 47.0421 219.386 47.0334C218.888 47.0204 218.483 47.1158 218.171 47.3194C217.859 47.5188 217.703 47.7853 217.703 48.1189C217.703 48.3053 217.759 48.4656 217.872 48.5999C217.984 48.7299 218.188 48.8534 218.483 48.9704C218.782 49.0874 219.206 49.2153 219.757 49.3539C220.402 49.5186 220.909 49.6919 221.278 49.8739C221.646 50.0559 221.908 50.2704 222.064 50.5174C222.22 50.7644 222.298 51.0699 222.298 51.4339C222.298 52.0969 222.051 52.6191 221.557 53.0004C221.067 53.3774 220.391 53.5659 219.529 53.5659ZM228.81 53.3774V49.7959C228.81 49.4059 228.773 49.0484 228.699 48.7234C228.626 48.3941 228.506 48.1081 228.342 47.8654C228.181 47.6184 227.971 47.4278 227.711 47.2934C227.456 47.1591 227.144 47.0919 226.775 47.0919C226.437 47.0919 226.138 47.1504 225.878 47.2674C225.623 47.3844 225.406 47.5534 225.228 47.7744C225.055 47.9911 224.923 48.2554 224.832 48.5674C224.741 48.8794 224.695 49.2348 224.695 49.6334L224.019 49.4839C224.019 48.7646 224.145 48.1601 224.396 47.6704C224.648 47.1808 224.994 46.8103 225.436 46.5589C225.878 46.3076 226.385 46.1819 226.957 46.1819C227.378 46.1819 227.744 46.2469 228.056 46.3769C228.372 46.5069 228.639 46.6824 228.855 46.9034C229.076 47.1244 229.254 47.3779 229.388 47.6639C229.523 47.9456 229.62 48.2468 229.681 48.5674C229.741 48.8838 229.772 49.2001 229.772 49.5164V53.3774H228.81ZM223.733 53.3774V44.0174H224.598V49.3019H224.695V53.3774H223.733ZM233.467 53.5724C232.938 53.5724 232.494 53.4771 232.134 53.2864C231.779 53.0958 231.513 52.8423 231.335 52.5259C231.157 52.2096 231.068 51.8651 231.068 51.4924C231.068 51.1111 231.144 50.7861 231.296 50.5174C231.452 50.2444 231.662 50.0213 231.926 49.8479C232.195 49.6746 232.505 49.5424 232.856 49.4514C233.211 49.3648 233.603 49.2889 234.032 49.2239C234.466 49.1546 234.888 49.0961 235.3 49.0484C235.716 48.9964 236.08 48.9466 236.392 48.8989L236.054 49.1069C236.067 48.4136 235.933 47.9001 235.651 47.5664C235.369 47.2328 234.88 47.0659 234.182 47.0659C233.701 47.0659 233.294 47.1743 232.96 47.3909C232.631 47.6076 232.399 47.9499 232.264 48.4179L231.335 48.1449C231.495 47.5166 231.818 47.0291 232.303 46.6824C232.789 46.3358 233.419 46.1624 234.195 46.1624C234.836 46.1624 235.38 46.2838 235.826 46.5264C236.277 46.7648 236.596 47.1114 236.782 47.5664C236.869 47.7701 236.925 47.9976 236.951 48.2489C236.977 48.5003 236.99 48.7559 236.99 49.0159V53.3774H236.138V51.6159L236.385 51.7199C236.147 52.3223 235.777 52.7816 235.274 53.0979C234.771 53.4143 234.169 53.5724 233.467 53.5724ZM233.577 52.7469C234.024 52.7469 234.414 52.6668 234.747 52.5064C235.081 52.3461 235.35 52.1273 235.553 51.8499C235.757 51.5683 235.889 51.2519 235.95 50.9009C236.002 50.6756 236.03 50.4286 236.034 50.1599C236.039 49.8869 236.041 49.6833 236.041 49.5489L236.405 49.7374C236.08 49.7808 235.727 49.8241 235.345 49.8674C234.968 49.9108 234.596 49.9606 234.227 50.0169C233.863 50.0733 233.534 50.1404 233.239 50.2184C233.04 50.2748 232.847 50.3549 232.661 50.4589C232.475 50.5586 232.321 50.6929 232.199 50.8619C232.082 51.0309 232.024 51.2411 232.024 51.4924C232.024 51.6961 232.074 51.8933 232.173 52.0839C232.277 52.2746 232.442 52.4328 232.667 52.5584C232.897 52.6841 233.2 52.7469 233.577 52.7469ZM238.682 53.3774V46.3574H239.54V48.0474L239.371 47.8264C239.449 47.6184 239.551 47.4278 239.677 47.2544C239.802 47.0768 239.939 46.9316 240.086 46.8189C240.268 46.6586 240.48 46.5373 240.723 46.4549C240.966 46.3683 241.211 46.3184 241.458 46.3054C241.705 46.2881 241.93 46.3054 242.134 46.3574V47.2544C241.878 47.1894 241.598 47.1743 241.295 47.2089C240.992 47.2436 240.712 47.3649 240.457 47.5729C240.223 47.7549 240.047 47.9738 239.93 48.2294C239.813 48.4808 239.735 48.7494 239.696 49.0354C239.657 49.3171 239.638 49.5966 239.638 49.8739V53.3774H238.682ZM246.21 53.5724C245.526 53.5724 244.932 53.4208 244.429 53.1174C243.931 52.8141 243.543 52.3873 243.266 51.8369C242.988 51.2866 242.85 50.6409 242.85 49.8999C242.85 49.1329 242.986 48.4699 243.259 47.9109C243.532 47.3519 243.916 46.9208 244.41 46.6174C244.908 46.3141 245.495 46.1624 246.171 46.1624C246.865 46.1624 247.456 46.3228 247.946 46.6434C248.435 46.9598 248.806 47.4148 249.057 48.0084C249.309 48.6021 249.423 49.3106 249.402 50.1339H248.427V49.7959C248.409 48.8859 248.212 48.1991 247.835 47.7354C247.463 47.2718 246.917 47.0399 246.197 47.0399C245.443 47.0399 244.865 47.2848 244.462 47.7744C244.063 48.2641 243.864 48.9618 243.864 49.8674C243.864 50.7514 244.063 51.4383 244.462 51.9279C244.865 52.4133 245.435 52.6559 246.171 52.6559C246.674 52.6559 247.112 52.5411 247.484 52.3114C247.861 52.0774 248.158 51.7416 248.375 51.3039L249.265 51.6484C248.988 52.2594 248.578 52.7339 248.037 53.0719C247.499 53.4056 246.891 53.5724 246.21 53.5724ZM243.526 50.1339V49.3344H248.888V50.1339H243.526ZM256.599 53.5724C255.954 53.5724 255.408 53.4099 254.961 53.0849C254.515 52.7556 254.177 52.3114 253.947 51.7524C253.718 51.1891 253.603 50.5586 253.603 49.8609C253.603 49.1503 253.718 48.5176 253.947 47.9629C254.181 47.4039 254.524 46.9641 254.974 46.6434C255.425 46.3228 255.98 46.1624 256.638 46.1624C257.28 46.1624 257.83 46.3249 258.289 46.6499C258.749 46.9749 259.1 47.4169 259.342 47.9759C259.589 48.5349 259.713 49.1633 259.713 49.8609C259.713 50.5629 259.589 51.1934 259.342 51.7524C259.095 52.3114 258.74 52.7556 258.276 53.0849C257.813 53.4099 257.254 53.5724 256.599 53.5724ZM253.44 56.4974V46.3574H254.298V51.6419H254.402V56.4974H253.44ZM256.502 52.6819C256.991 52.6819 257.399 52.5584 257.724 52.3114C258.049 52.0644 258.291 51.7286 258.452 51.3039C258.616 50.8749 258.699 50.3939 258.699 49.8609C258.699 49.3323 258.619 48.8556 258.458 48.4309C258.298 48.0063 258.053 47.6704 257.724 47.4234C257.399 47.1764 256.985 47.0529 256.482 47.0529C255.993 47.0529 255.585 47.1721 255.26 47.4104C254.94 47.6488 254.699 47.9803 254.539 48.4049C254.378 48.8253 254.298 49.3106 254.298 49.8609C254.298 50.4026 254.378 50.8879 254.539 51.3169C254.699 51.7416 254.942 52.0753 255.267 52.3179C255.592 52.5606 256.003 52.6819 256.502 52.6819ZM266.21 53.3774V49.7959C266.21 49.4059 266.173 49.0484 266.1 48.7234C266.026 48.3941 265.907 48.1081 265.742 47.8654C265.582 47.6184 265.372 47.4278 265.112 47.2934C264.856 47.1591 264.544 47.0919 264.176 47.0919C263.838 47.0919 263.539 47.1504 263.279 47.2674C263.023 47.3844 262.806 47.5534 262.629 47.7744C262.455 47.9911 262.323 48.2554 262.232 48.5674C262.141 48.8794 262.096 49.2348 262.096 49.6334L261.42 49.4839C261.42 48.7646 261.545 48.1601 261.797 47.6704C262.048 47.1808 262.395 46.8103 262.837 46.5589C263.279 46.3076 263.786 46.1819 264.358 46.1819C264.778 46.1819 265.144 46.2469 265.456 46.3769C265.772 46.5069 266.039 46.6824 266.256 46.9034C266.477 47.1244 266.654 47.3779 266.789 47.6639C266.923 47.9456 267.02 48.2468 267.081 48.5674C267.142 48.8838 267.172 49.2001 267.172 49.5164V53.3774H266.21ZM261.134 53.3774V46.3574H261.998V48.0864H262.096V53.3774H261.134ZM271.647 56.6924C271.288 56.6924 270.932 56.6383 270.581 56.5299C270.235 56.4259 269.914 56.2591 269.619 56.0294C269.325 55.8041 269.078 55.5094 268.878 55.1454L269.743 54.6644C269.938 55.0544 270.211 55.3339 270.562 55.5029C270.917 55.6763 271.279 55.7629 271.647 55.7629C272.154 55.7629 272.564 55.6676 272.876 55.4769C273.192 55.2906 273.422 55.0133 273.565 54.6449C273.708 54.2766 273.777 53.8173 273.773 53.2669V51.3949H273.883V46.3574H274.735V53.2799C274.735 53.4793 274.728 53.6699 274.715 53.8519C274.707 54.0383 274.687 54.2203 274.657 54.3979C274.575 54.9223 274.403 55.3534 274.143 55.6914C273.888 56.0294 273.55 56.2808 273.129 56.4454C272.713 56.6101 272.219 56.6924 271.647 56.6924ZM271.582 53.5724C270.928 53.5724 270.369 53.4099 269.905 53.0849C269.442 52.7556 269.086 52.3114 268.839 51.7524C268.592 51.1934 268.469 50.5629 268.469 49.8609C268.469 49.1633 268.59 48.5349 268.833 47.9759C269.08 47.4169 269.433 46.9749 269.892 46.6499C270.352 46.3249 270.902 46.1624 271.543 46.1624C272.202 46.1624 272.757 46.3228 273.207 46.6434C273.658 46.9641 273.998 47.4039 274.228 47.9629C274.462 48.5176 274.579 49.1503 274.579 49.8609C274.579 50.5586 274.464 51.1891 274.234 51.7524C274.005 52.3114 273.667 52.7556 273.22 53.0849C272.774 53.4099 272.228 53.5724 271.582 53.5724ZM271.68 52.6819C272.178 52.6819 272.59 52.5606 272.915 52.3179C273.24 52.0753 273.483 51.7416 273.643 51.3169C273.803 50.8879 273.883 50.4026 273.883 49.8609C273.883 49.3106 273.803 48.8253 273.643 48.4049C273.483 47.9803 273.24 47.6488 272.915 47.4104C272.594 47.1721 272.189 47.0529 271.699 47.0529C271.197 47.0529 270.781 47.1764 270.451 47.4234C270.122 47.6704 269.877 48.0063 269.717 48.4309C269.561 48.8556 269.483 49.3323 269.483 49.8609C269.483 50.3939 269.563 50.8749 269.723 51.3039C269.888 51.7286 270.133 52.0644 270.458 52.3114C270.783 52.5584 271.19 52.6819 271.68 52.6819Z" fill="#3B476A"/>
<path fill-rule="evenodd" clip-rule="evenodd" d="M67.5249 20.6993V36.0308C67.5249 36.8868 67.1848 37.7078 66.5795 38.3131C65.9742 38.9184 65.1533 39.2584 64.2972 39.2584H62.6834V37.6446H64.2972C64.7252 37.6446 65.1357 37.4746 65.4384 37.1719C65.741 36.8693 65.9111 36.4588 65.9111 36.0308V20.6993H62.6834C62.0414 20.6993 61.4256 20.4442 60.9716 19.9903C60.5177 19.5363 60.2626 18.9206 60.2626 18.2785V15.0509H51.3865C50.9585 15.0509 50.548 15.2209 50.2454 15.5235C49.9427 15.8262 49.7727 16.2367 49.7727 16.6647V31.1892H48.1588V16.6647C48.1588 15.8087 48.4989 14.9877 49.1042 14.3824C49.7095 13.7771 50.5305 13.437 51.3865 13.437H60.2626L67.5249 20.6993ZM47.5133 32.561H44.9312V39.0147H46.2077V36.849H47.5036C47.9668 36.849 48.3606 36.757 48.6849 36.5698C49.0126 36.381 49.2627 36.126 49.4321 35.8048C49.608 35.4678 49.6973 35.0924 49.692 34.7123C49.692 34.3088 49.6064 33.9441 49.437 33.6197C49.2684 33.2972 49.0108 33.03 48.6946 32.8499C48.3719 32.6562 47.9797 32.561 47.5133 32.561ZM48.3928 34.7123C48.3987 34.9249 48.3515 35.1356 48.2557 35.3255C48.1697 35.4908 48.0358 35.6264 47.8716 35.7144C47.6837 35.8074 47.4759 35.8528 47.2664 35.8468H46.2029V33.5777H47.268C47.6198 33.5777 47.8958 33.6746 48.0943 33.8698C48.2928 34.0667 48.3928 34.3475 48.3928 34.7123ZM50.3569 32.561V39.0147H52.7131C53.3602 39.0147 53.8976 38.8856 54.3237 38.6323C54.7548 38.3743 55.0915 37.9845 55.2839 37.5203C55.4937 37.0362 55.6002 36.452 55.6002 35.7709C55.6002 35.0931 55.4953 34.5154 55.2839 34.0361C55.0938 33.5773 54.7603 33.1923 54.3334 32.9386C53.9073 32.6869 53.3667 32.561 52.7115 32.561H50.3569ZM51.6334 33.6019H52.542C52.9423 33.6019 53.2682 33.6826 53.5248 33.8472C53.7912 34.0214 53.9921 34.2791 54.0961 34.5799C54.2236 34.9043 54.2866 35.3094 54.2866 35.7951C54.2916 36.117 54.2547 36.4382 54.1768 36.7505C54.1193 36.9969 54.0117 37.2287 53.8605 37.4316C53.7201 37.6126 53.5341 37.7529 53.3215 37.8383C53.0724 37.9315 52.8079 37.9764 52.542 37.9706H51.6334V33.6019ZM57.674 36.4471V39.0147H56.3991V32.561H60.5112V33.6148H57.674V35.4175H60.2659V36.4471H57.674Z" fill="#3B476A"/>
<path d="M140.085 27.9155C140.085 25.9918 141.649 24.428 143.573 24.428H148.073V22.2905H143.573C140.468 22.2905 137.948 24.8105 137.948 27.9155C137.948 31.0205 140.468 33.5405 143.573 33.5405H148.073V31.403H143.573C141.649 31.403 140.085 29.8393 140.085 27.9155ZM144.698 29.0405H153.698V26.7905H144.698V29.0405ZM154.823 22.2905H150.323V24.428H154.823C156.746 24.428 158.31 25.9918 158.31 27.9155C158.31 29.8393 156.746 31.403 154.823 31.403H150.323V33.5405H154.823C157.928 33.5405 160.448 31.0205 160.448 27.9155C160.448 24.8105 157.928 22.2905 154.823 22.2905Z" fill="#3B476A"/>
<path d="M237.495 31.5049V28.5049M237.495 28.5049V25.5049H240.826V28.5049H237.495ZM244.156 31.5049V25.5049L247.486 31.5049V25.5049M254.146 25.5049H250.816V31.5049H254.146V29.1049" stroke="#3B476A" stroke-width="1.5" stroke-linecap="round" stroke-linejoin="round"/>
<path d="M236.94 22.5049V20.1049C236.94 19.9458 237.011 19.7931 237.136 19.6806C237.26 19.5681 237.43 19.5049 237.606 19.5049H254.035C254.212 19.5049 254.381 19.5681 254.506 19.6806C254.631 19.7931 254.701 19.9458 254.701 20.1049V22.5049M236.94 34.5049V36.9049C236.94 37.064 237.011 37.2166 237.136 37.3291C237.26 37.4417 237.43 37.5049 237.606 37.5049H254.035C254.212 37.5049 254.381 37.4417 254.506 37.3291C254.631 37.2166 254.701 37.064 254.701 36.9049V34.5049" stroke="#3B476A" stroke-width="1.5" stroke-linecap="round"/>
<defs>
<filter id="filter0_d_0_1" x="0.889648" y="0" width="303.51" height="73.6064" filterUnits="userSpaceOnUse" color-interpolation-filters="sRGB">
<feFlood flood-opacity="0" result="BackgroundImageFix"/>
<feColorMatrix in="SourceAlpha" type="matrix" values="0 0 0 0 0 0 0 0 0 0 0 0 0 0 0 0 0 0 127 0" result="hardAlpha"/>
<feOffset dy="4"/>
<feGaussianBlur stdDeviation="5"/>
<feComposite in2="hardAlpha" operator="out"/>
<feColorMatrix type="matrix" values="0 0 0 0 0 0 0 0 0 0 0 0 0 0 0 0 0 0 0.15 0"/>
<feBlend mode="normal" in2="BackgroundImageFix" result="effect1_dropShadow_0_1"/>
<feBlend mode="normal" in="SourceGraphic" in2="effect1_dropShadow_0_1" result="shape"/>
</filter>
</defs>
</svg>
