<svg width="24" height="24" viewBox="0 0 24 24" fill="none" xmlns="http://www.w3.org/2000/svg">
<path d="M5.83333 20H1.16667C0.836115 20 0.558837 19.888 0.334837 19.664C0.110837 19.44 -0.000773741 19.1631 4.03691e-06 18.8333C4.03691e-06 18.5028 0.112004 18.2255 0.336004 18.0015C0.560004 17.7775 0.836893 17.6659 1.16667 17.6667H5.83333C6.16389 17.6667 6.44117 17.7787 6.66517 18.0027C6.88917 18.2267 7.00078 18.5036 7 18.8333C7 19.1639 6.888 19.4412 6.664 19.6652C6.44 19.8892 6.16311 20.0008 5.83333 20ZM19.8333 8.33334H1.16667C0.836115 8.33334 0.558837 8.22134 0.334837 7.99734C0.110837 7.77334 -0.000773741 7.49645 4.03691e-06 7.16667C4.03691e-06 6.83611 0.112004 6.55884 0.336004 6.33484C0.560004 6.11084 0.836893 5.99923 1.16667 6H19.8333C20.1639 6 20.4412 6.112 20.6652 6.336C20.8892 6.56 21.0008 6.83689 21 7.16667C21 7.49723 20.888 7.7745 20.664 7.9985C20.44 8.2225 20.1631 8.33411 19.8333 8.33334ZM12.8333 14.1667H1.16667C0.836115 14.1667 0.558837 14.0547 0.334837 13.8307C0.110837 13.6067 -0.000773741 13.3298 4.03691e-06 13C4.03691e-06 12.6694 0.112004 12.3922 0.336004 12.1682C0.560004 11.9442 0.836893 11.8326 1.16667 11.8333H12.8333C13.1639 11.8333 13.4412 11.9453 13.6652 12.1693C13.8892 12.3933 14.0008 12.6702 14 13C14 13.3306 13.888 13.6078 13.664 13.8318C13.44 14.0558 13.1631 14.1674 12.8333 14.1667Z" fill="#00A389"/>
<path d="M18.0059 16.5772C17.6555 16.5772 17.3273 16.7132 17.0789 16.9616C16.8316 17.2101 16.6945 17.5382 16.6945 17.8886C16.6945 18.239 16.8316 18.5671 17.0789 18.8155C17.3273 19.0628 17.6555 19.1999 18.0059 19.1999C18.3563 19.1999 18.6844 19.0628 18.9328 18.8155C19.1801 18.5671 19.3172 18.239 19.3172 17.8886C19.3172 17.5382 19.1801 17.2101 18.9328 16.9616C18.8115 16.8393 18.667 16.7424 18.5079 16.6764C18.3488 16.6104 18.1781 16.5767 18.0059 16.5772ZM22.8375 19.337L22.0711 18.6819C22.1074 18.4593 22.1262 18.2319 22.1262 18.0058C22.1262 17.7796 22.1074 17.5511 22.0711 17.3296L22.8375 16.6745C22.8954 16.6249 22.9368 16.5589 22.9563 16.4853C22.9758 16.4116 22.9724 16.3337 22.9465 16.262L22.9359 16.2315C22.725 15.6417 22.409 15.095 22.0031 14.6179L21.982 14.5933C21.9328 14.5353 21.8671 14.4937 21.7936 14.4738C21.7202 14.4539 21.6425 14.4568 21.5707 14.4819L20.6191 14.8206C20.2676 14.5323 19.8762 14.305 19.452 14.1468L19.268 13.1519C19.2541 13.0769 19.2177 13.008 19.1637 12.9542C19.1097 12.9004 19.0406 12.8643 18.9656 12.8507L18.934 12.8448C18.3246 12.7347 17.6824 12.7347 17.0731 12.8448L17.0414 12.8507C16.9664 12.8643 16.8973 12.9004 16.8433 12.9542C16.7893 13.008 16.7529 13.0769 16.7391 13.1519L16.5539 14.1515C16.1337 14.3109 15.7423 14.5377 15.3949 14.8229L14.4363 14.4819C14.3646 14.4566 14.2868 14.4536 14.2133 14.4735C14.1398 14.4934 14.0742 14.5352 14.025 14.5933L14.0039 14.6179C13.5988 15.0955 13.2828 15.6421 13.0711 16.2315L13.0606 16.262C13.0078 16.4085 13.0512 16.5726 13.1695 16.6745L13.9453 17.3366C13.909 17.5569 13.8914 17.7819 13.8914 18.0046C13.8914 18.2296 13.909 18.4546 13.9453 18.6726L13.1719 19.3347C13.114 19.3842 13.0725 19.4502 13.0531 19.5239C13.0336 19.5976 13.037 19.6755 13.0629 19.7472L13.0734 19.7776C13.2856 20.3671 13.5984 20.912 14.0063 21.3913L14.0273 21.4159C14.0766 21.4739 14.1423 21.5155 14.2157 21.5354C14.2892 21.5553 14.3669 21.5524 14.4387 21.5272L15.3973 21.1862C15.7465 21.4733 16.1356 21.7007 16.5563 21.8577L16.7414 22.8573C16.7553 22.9323 16.7917 23.0012 16.8457 23.055C16.8997 23.1088 16.9688 23.1449 17.0438 23.1585L17.0754 23.1644C17.6908 23.2751 18.321 23.2751 18.9363 23.1644L18.968 23.1585C19.043 23.1449 19.1121 23.1088 19.1661 23.055C19.2201 23.0012 19.2564 22.9323 19.2703 22.8573L19.4543 21.8624C19.8785 21.703 20.2699 21.4769 20.6215 21.1886L21.5731 21.5272C21.6448 21.5526 21.7226 21.5556 21.7961 21.5357C21.8695 21.5158 21.9352 21.474 21.9844 21.4159L22.0055 21.3913C22.4133 20.9097 22.7262 20.3671 22.9383 19.7776L22.9488 19.7472C22.9992 19.6019 22.9559 19.439 22.8375 19.337ZM18.0059 19.9487C16.868 19.9487 15.9457 19.0265 15.9457 17.8886C15.9457 16.7507 16.868 15.8284 18.0059 15.8284C19.1438 15.8284 20.066 16.7507 20.066 17.8886C20.066 19.0265 19.1438 19.9487 18.0059 19.9487Z" fill="#00A389"/>
</svg>
