<svg width="334" height="617" viewBox="0 0 334 617" fill="none" xmlns="http://www.w3.org/2000/svg">
<g filter="url(#filter0_d_0_1)">
<rect x="10.092" y="9.17334" width="313.726" height="625.676" rx="8" fill="white"/>
</g>
<path d="M134.001 1.46122L127.41 9.43037L118.073 1.46122C117.598 1.08897 117.02 0.887511 116.425 0.887511C115.83 0.887511 115.251 1.08897 114.777 1.46122L105.44 9.43037L96.1029 1.46122C95.6287 1.08897 95.0501 0.887511 94.4552 0.887511C93.8603 0.887511 93.2817 1.08897 92.8075 1.46122L83.4704 9.43037L76.8795 1.46122C75.0602 0.0559494 72.4856 1.39007 72.4856 3.73812V89.1218C72.4856 91.4699 75.0602 92.804 76.8795 91.3987L83.4704 83.4296L92.8075 91.3987C93.2817 91.771 93.8603 91.9724 94.4552 91.9724C95.0501 91.9724 95.6287 91.771 96.1029 91.3987L105.44 83.4296L114.777 91.3987C115.251 91.771 115.83 91.9724 116.425 91.9724C117.02 91.9724 117.598 91.771 118.073 91.3987L127.41 83.4296L134.001 91.3987C135.803 92.804 138.394 91.4699 138.394 89.1218V3.73812C138.394 1.39007 135.82 0.0559494 134.001 1.46122ZM127.41 64.9298C127.41 65.7124 126.792 66.3528 126.037 66.3528H84.8435C84.0883 66.3528 83.4704 65.7124 83.4704 64.9298V62.0836C83.4704 61.301 84.0883 60.6606 84.8435 60.6606H126.037C126.792 60.6606 127.41 61.301 127.41 62.0836V64.9298ZM127.41 47.853C127.41 48.6357 126.792 49.2761 126.037 49.2761H84.8435C84.0883 49.2761 83.4704 48.6357 83.4704 47.853V45.0069C83.4704 44.2242 84.0883 43.5838 84.8435 43.5838H126.037C126.792 43.5838 127.41 44.2242 127.41 45.0069V47.853ZM127.41 30.7763C127.41 31.559 126.792 32.1993 126.037 32.1993H84.8435C84.0883 32.1993 83.4704 31.559 83.4704 30.7763V27.9302C83.4704 27.1475 84.0883 26.5071 84.8435 26.5071H126.037C126.792 26.5071 127.41 27.1475 127.41 27.9302V30.7763Z" fill="white"/>
<path d="M319.424 1.46122L312.833 9.43037L303.496 1.46122C303.022 1.08897 302.443 0.887511 301.848 0.887511C301.254 0.887511 300.675 1.08897 300.201 1.46122L290.864 9.43037L281.527 1.46122C281.052 1.08897 280.474 0.887511 279.879 0.887511C279.284 0.887511 278.705 1.08897 278.231 1.46122L268.894 9.43037L262.303 1.46122C260.484 0.0559494 257.909 1.39007 257.909 3.73812V89.1218C257.909 91.4699 260.484 92.804 262.303 91.3987L268.894 83.4296L278.231 91.3987C278.705 91.771 279.284 91.9724 279.879 91.9724C280.474 91.9724 281.052 91.771 281.527 91.3987L290.864 83.4296L300.201 91.3987C300.675 91.771 301.254 91.9724 301.848 91.9724C302.443 91.9724 303.022 91.771 303.496 91.3987L312.833 83.4296L319.424 91.3987C321.226 92.804 323.818 91.4699 323.818 89.1218V3.73812C323.818 1.39007 321.243 0.0559494 319.424 1.46122ZM312.833 64.9298C312.833 65.7124 312.215 66.3528 311.46 66.3528H270.267C269.512 66.3528 268.894 65.7124 268.894 64.9298V62.0836C268.894 61.301 269.512 60.6606 270.267 60.6606H311.46C312.215 60.6606 312.833 61.301 312.833 62.0836V64.9298ZM312.833 47.853C312.833 48.6357 312.215 49.2761 311.46 49.2761H270.267C269.512 49.2761 268.894 48.6357 268.894 47.853V45.0069C268.894 44.2242 269.512 43.5838 270.267 43.5838H311.46C312.215 43.5838 312.833 44.2242 312.833 45.0069V47.853ZM312.833 30.7763C312.833 31.559 312.215 32.1993 311.46 32.1993H270.267C269.512 32.1993 268.894 31.559 268.894 30.7763V27.9302C268.894 27.1475 269.512 26.5071 270.267 26.5071H311.46C312.215 26.5071 312.833 27.1475 312.833 27.9302V30.7763Z" fill="white"/>
<path d="M256.152 1.46122L249.561 9.43037L240.224 1.46122C239.749 1.08897 239.171 0.887511 238.576 0.887511C237.981 0.887511 237.402 1.08897 236.928 1.46122L227.591 9.43037L218.254 1.46122C217.78 1.08897 217.201 0.887511 216.606 0.887511C216.011 0.887511 215.433 1.08897 214.959 1.46122L205.622 9.43037L199.031 1.46122C197.211 0.0559494 194.637 1.39007 194.637 3.73812V89.1218C194.637 91.4699 197.211 92.804 199.031 91.3987L205.622 83.4296L214.959 91.3987C215.433 91.771 216.011 91.9724 216.606 91.9724C217.201 91.9724 217.78 91.771 218.254 91.3987L227.591 83.4296L236.928 91.3987C237.402 91.771 237.981 91.9724 238.576 91.9724C239.171 91.9724 239.749 91.771 240.224 91.3987L249.561 83.4296L256.152 91.3987C257.954 92.804 260.546 91.4699 260.546 89.1218V3.73812C260.546 1.39007 257.971 0.0559494 256.152 1.46122ZM249.561 64.9298C249.561 65.7124 248.943 66.3528 248.188 66.3528H206.995C206.239 66.3528 205.622 65.7124 205.622 64.9298V62.0836C205.622 61.301 206.239 60.6606 206.995 60.6606H248.188C248.943 60.6606 249.561 61.301 249.561 62.0836V64.9298ZM249.561 47.853C249.561 48.6357 248.943 49.2761 248.188 49.2761H206.995C206.239 49.2761 205.622 48.6357 205.622 47.853V45.0069C205.622 44.2242 206.239 43.5838 206.995 43.5838H248.188C248.943 43.5838 249.561 44.2242 249.561 45.0069V47.853ZM249.561 30.7763C249.561 31.559 248.943 32.1993 248.188 32.1993H206.995C206.239 32.1993 205.622 31.559 205.622 30.7763V27.9302C205.622 27.1475 206.239 26.5071 206.995 26.5071H248.188C248.943 26.5071 249.561 27.1475 249.561 27.9302V30.7763Z" fill="white"/>
<path d="M194.637 1.46122L188.046 9.43037L178.709 1.46122C178.235 1.08897 177.656 0.887511 177.061 0.887511C176.466 0.887511 175.888 1.08897 175.413 1.46122L166.076 9.43037L156.739 1.46122C156.265 1.08897 155.686 0.887511 155.091 0.887511C154.497 0.887511 153.918 1.08897 153.444 1.46122L144.107 9.43037L137.516 1.46122C135.696 0.0559494 133.122 1.39007 133.122 3.73812V89.1218C133.122 91.4699 135.696 92.804 137.516 91.3987L144.107 83.4296L153.444 91.3987C153.918 91.771 154.497 91.9724 155.091 91.9724C155.686 91.9724 156.265 91.771 156.739 91.3987L166.076 83.4296L175.413 91.3987C175.888 91.771 176.466 91.9724 177.061 91.9724C177.656 91.9724 178.235 91.771 178.709 91.3987L188.046 83.4296L194.637 91.3987C196.439 92.804 199.031 91.4699 199.031 89.1218V3.73812C199.031 1.39007 196.456 0.0559494 194.637 1.46122ZM188.046 64.9298C188.046 65.7124 187.428 66.3528 186.673 66.3528H145.48C144.725 66.3528 144.107 65.7124 144.107 64.9298V62.0836C144.107 61.301 144.725 60.6606 145.48 60.6606H186.673C187.428 60.6606 188.046 61.301 188.046 62.0836V64.9298ZM188.046 47.853C188.046 48.6357 187.428 49.2761 186.673 49.2761H145.48C144.725 49.2761 144.107 48.6357 144.107 47.853V45.0069C144.107 44.2242 144.725 43.5838 145.48 43.5838H186.673C187.428 43.5838 188.046 44.2242 188.046 45.0069V47.853ZM188.046 30.7763C188.046 31.559 187.428 32.1993 186.673 32.1993H145.48C144.725 32.1993 144.107 31.559 144.107 30.7763V27.9302C144.107 27.1475 144.725 26.5071 145.48 26.5071H186.673C187.428 26.5071 188.046 27.1475 188.046 27.9302V30.7763Z" fill="white"/>
<path d="M71.607 1.46122L65.0161 9.43037L55.679 1.46122C55.2048 1.08897 54.6262 0.887511 54.0313 0.887511C53.4364 0.887511 52.8578 1.08897 52.3836 1.46122L43.0465 9.43037L33.7094 1.46122C33.2352 1.08897 32.6566 0.887511 32.0617 0.887511C31.4668 0.887511 30.8882 1.08897 30.4139 1.46122L21.0769 9.43037L14.486 1.46122C12.6666 0.0559494 10.092 1.39007 10.092 3.73812V89.1218C10.092 91.4699 12.6666 92.804 14.486 91.3987L21.0769 83.4296L30.4139 91.3987C30.8882 91.771 31.4668 91.9724 32.0617 91.9724C32.6566 91.9724 33.2352 91.771 33.7094 91.3987L43.0465 83.4296L52.3836 91.3987C52.8578 91.771 53.4364 91.9724 54.0313 91.9724C54.6262 91.9724 55.2048 91.771 55.679 91.3987L65.0161 83.4296L71.607 91.3987C73.4092 92.804 76.0009 91.4699 76.0009 89.1218V3.73812C76.0009 1.39007 73.4263 0.0559494 71.607 1.46122ZM65.0161 64.9298C65.0161 65.7124 64.3982 66.3528 63.643 66.3528H22.45C21.6947 66.3528 21.0769 65.7124 21.0769 64.9298V62.0836C21.0769 61.301 21.6947 60.6606 22.45 60.6606H63.643C64.3982 60.6606 65.0161 61.301 65.0161 62.0836V64.9298ZM65.0161 47.853C65.0161 48.6357 64.3982 49.2761 63.643 49.2761H22.45C21.6947 49.2761 21.0769 48.6357 21.0769 47.853V45.0069C21.0769 44.2242 21.6947 43.5838 22.45 43.5838H63.643C64.3982 43.5838 65.0161 44.2242 65.0161 45.0069V47.853ZM65.0161 30.7763C65.0161 31.559 64.3982 32.1993 63.643 32.1993H22.45C21.6947 32.1993 21.0769 31.559 21.0769 30.7763V27.9302C21.0769 27.1475 21.6947 26.5071 22.45 26.5071H63.643C64.3982 26.5071 65.0161 27.1475 65.0161 27.9302V30.7763Z" fill="white"/>
<defs>
<filter id="filter0_d_0_1" x="0.092041" y="3.17334" width="333.726" height="645.676" filterUnits="userSpaceOnUse" color-interpolation-filters="sRGB">
<feFlood flood-opacity="0" result="BackgroundImageFix"/>
<feColorMatrix in="SourceAlpha" type="matrix" values="0 0 0 0 0 0 0 0 0 0 0 0 0 0 0 0 0 0 127 0" result="hardAlpha"/>
<feOffset dy="4"/>
<feGaussianBlur stdDeviation="5"/>
<feComposite in2="hardAlpha" operator="out"/>
<feColorMatrix type="matrix" values="0 0 0 0 0 0 0 0 0 0 0 0 0 0 0 0 0 0 0.15 0"/>
<feBlend mode="normal" in2="BackgroundImageFix" result="effect1_dropShadow_0_1"/>
<feBlend mode="normal" in="SourceGraphic" in2="effect1_dropShadow_0_1" result="shape"/>
</filter>
</defs>
</svg>
