<svg width="28" height="28" viewBox="0 0 28 28" fill="none" xmlns="http://www.w3.org/2000/svg">
<path d="M25.25 2.75H2.75C2.45163 2.75 2.16548 2.86853 1.9545 3.0795C1.74353 3.29048 1.625 3.57663 1.625 3.875V12.875C1.625 13.1734 1.74353 13.4595 1.9545 13.6705C2.16548 13.8815 2.45163 14 2.75 14H6.125V24.125C6.125 24.4234 6.24353 24.7095 6.4545 24.9205C6.66548 25.1315 6.95163 25.25 7.25 25.25H20.75C21.0484 25.25 21.3345 25.1315 21.5455 24.9205C21.7565 24.7095 21.875 24.4234 21.875 24.125V14H25.25C25.5484 14 25.8345 13.8815 26.0455 13.6705C26.2565 13.4595 26.375 13.1734 26.375 12.875V3.875C26.375 3.57663 26.2565 3.29048 26.0455 3.0795C25.8345 2.86853 25.5484 2.75 25.25 2.75ZM8.375 23V20.75C8.97174 20.75 9.54403 20.9871 9.96599 21.409C10.3879 21.831 10.625 22.4033 10.625 23H8.375ZM19.625 23H17.375C17.375 22.4033 17.6121 21.831 18.034 21.409C18.456 20.9871 19.0283 20.75 19.625 20.75V23ZM19.625 18.5C18.4315 18.5 17.2869 18.9741 16.443 19.818C15.5991 20.6619 15.125 21.8065 15.125 23H12.875C12.875 21.8065 12.4009 20.6619 11.557 19.818C10.7131 18.9741 9.56847 18.5 8.375 18.5V9.5H19.625V18.5ZM24.125 11.75H21.875V8.375C21.875 8.07663 21.7565 7.79048 21.5455 7.5795C21.3345 7.36853 21.0484 7.25 20.75 7.25H7.25C6.95163 7.25 6.66548 7.36853 6.4545 7.5795C6.24353 7.79048 6.125 8.07663 6.125 8.375V11.75H3.875V5H24.125V11.75ZM14 17.375C14.6675 17.375 15.32 17.1771 15.875 16.8062C16.4301 16.4354 16.8626 15.9083 17.1181 15.2916C17.3735 14.6749 17.4404 13.9963 17.3102 13.3416C17.1799 12.6869 16.8585 12.0855 16.3865 11.6135C15.9145 11.1415 15.3131 10.8201 14.6584 10.6898C14.0037 10.5596 13.3251 10.6265 12.7084 10.8819C12.0917 11.1374 11.5646 11.5699 11.1938 12.125C10.8229 12.68 10.625 13.3325 10.625 14C10.625 14.8951 10.9806 15.7536 11.6135 16.3865C12.2464 17.0194 13.1049 17.375 14 17.375ZM14 12.875C14.2225 12.875 14.44 12.941 14.625 13.0646C14.81 13.1882 14.9542 13.3639 15.0394 13.5695C15.1245 13.775 15.1468 14.0012 15.1034 14.2195C15.06 14.4377 14.9528 14.6382 14.7955 14.7955C14.6382 14.9528 14.4377 15.06 14.2195 15.1034C14.0012 15.1468 13.775 15.1245 13.5695 15.0394C13.3639 14.9542 13.1882 14.81 13.0646 14.625C12.941 14.44 12.875 14.2225 12.875 14C12.875 13.7016 12.9935 13.4155 13.2045 13.2045C13.4155 12.9935 13.7016 12.875 14 12.875Z" fill="white"/>
</svg>
