<svg width="25" height="25" viewBox="0 0 25 25" fill="none" xmlns="http://www.w3.org/2000/svg">
<path fill-rule="evenodd" clip-rule="evenodd" d="M22.6456 9.43312C22.5757 9.42975 22.5056 9.42855 22.4356 9.42953H19.5134C17.1229 9.42953 15.0756 11.3268 15.0756 13.8013C15.0756 16.2759 17.1229 18.1732 19.5146 18.1732H22.4344C22.5076 18.1732 22.5784 18.1732 22.6444 18.1684C23.1378 18.1369 23.603 17.927 23.9532 17.5779C24.3033 17.2289 24.5146 16.7644 24.5477 16.2711C24.5525 16.2003 24.5525 16.1247 24.5525 16.0551V11.5476C24.5525 11.478 24.5525 11.4024 24.5477 11.3316C24.5147 10.8385 24.3035 10.3742 23.9536 10.0251C23.6037 9.67607 23.1388 9.46611 22.6456 9.43433V9.43312ZM19.2578 14.9666C19.8735 14.9666 20.3739 14.4458 20.3739 13.8013C20.3739 13.1569 19.8735 12.6361 19.2578 12.6361C18.6422 12.6361 18.143 13.1569 18.143 13.8013C18.143 14.4458 18.641 14.9666 19.2578 14.9666Z" fill="white"/>
<path fill-rule="evenodd" clip-rule="evenodd" d="M22.4344 19.9214C22.4746 19.92 22.5146 19.928 22.5511 19.9449C22.5876 19.9618 22.6196 19.987 22.6446 20.0185C22.6696 20.0501 22.6869 20.087 22.6949 20.1264C22.703 20.1658 22.7017 20.2066 22.6912 20.2454C22.4584 21.0759 22.09 21.7839 21.4983 22.3791C20.6331 23.2516 19.535 23.6392 18.179 23.8228C16.8613 24.0016 15.1788 24.0016 13.0523 24.0016H10.6078C8.48249 24.0016 6.7988 24.0016 5.48114 23.8228C4.12507 23.6392 3.02701 23.2516 2.16177 22.3791C1.29653 21.5079 0.912508 20.4014 0.730099 19.0346C0.55249 17.7061 0.55249 16.0092 0.55249 13.8671V13.7351C0.55249 11.593 0.55249 9.8949 0.730099 8.56763C0.912508 7.20077 1.29653 6.09671 2.16057 5.22187C3.02581 4.35062 4.12387 3.9618 5.47994 3.7794C6.7988 3.60059 8.48249 3.60059 10.6078 3.60059H13.0523C15.1776 3.60059 16.8613 3.60059 18.179 3.7794C19.535 3.963 20.6331 4.35062 21.4983 5.22187C22.09 5.8183 22.4584 6.52633 22.6912 7.35797C22.7015 7.39672 22.7026 7.43734 22.6944 7.47659C22.6863 7.51584 22.669 7.55263 22.644 7.58401C22.6191 7.61538 22.5871 7.64048 22.5507 7.65729C22.5143 7.67409 22.4745 7.68214 22.4344 7.68079H19.5146C16.2337 7.68079 13.3427 10.2933 13.3427 13.8011C13.3427 17.3089 16.2349 19.9214 19.5158 19.9214H22.4344ZM4.88951 8.26402C4.77525 8.26449 4.66221 8.28746 4.55683 8.33162C4.45145 8.37578 4.3558 8.44027 4.27535 8.52139C4.19489 8.60252 4.1312 8.6987 4.08791 8.80444C4.04463 8.91018 4.02259 9.02341 4.02306 9.13766C4.02306 9.62129 4.41068 10.0125 4.88951 10.0125H9.51694C9.99696 10.0125 10.3846 9.62129 10.3846 9.13766C10.3852 8.9068 10.2942 8.68513 10.1315 8.52132C9.96884 8.35751 9.7478 8.26497 9.51694 8.26402H4.88951Z" fill="white"/>
<path d="M7.48523 2.42963L9.83495 0.697941C10.4481 0.244635 11.1905 0 11.9531 0C12.7156 0 13.458 0.244635 14.0712 0.697941L16.4341 2.43923C15.4452 2.40083 14.3412 2.40083 13.1327 2.40083H10.5286C9.42213 2.40083 8.40568 2.40083 7.48523 2.42963Z" fill="white"/>
</svg>
