<?xml version="1.0" encoding="UTF-8" standalone="no"?>
<svg
   width="30"
   height="30"
   viewBox="0 0 30 30"
   fill="none"
   version="1.1"
   id="svg4"
   sodipodi:docname="trf-in.svg"
   inkscape:version="1.2 (dc2aedaf03, 2022-05-15)"
   xmlns:inkscape="http://www.inkscape.org/namespaces/inkscape"
   xmlns:sodipodi="http://sodipodi.sourceforge.net/DTD/sodipodi-0.dtd"
   xmlns="http://www.w3.org/2000/svg"
   xmlns:svg="http://www.w3.org/2000/svg">
  <defs
     id="defs8" />
  <sodipodi:namedview
     id="namedview6"
     pagecolor="#505050"
     bordercolor="#ffffff"
     borderopacity="1"
     inkscape:showpageshadow="0"
     inkscape:pageopacity="0"
     inkscape:pagecheckerboard="1"
     inkscape:deskcolor="#505050"
     showgrid="false"
     inkscape:zoom="21.056069"
     inkscape:cx="12.276746"
     inkscape:cy="11.849315"
     inkscape:window-width="1920"
     inkscape:window-height="991"
     inkscape:window-x="-9"
     inkscape:window-y="-9"
     inkscape:window-maximized="1"
     inkscape:current-layer="svg4" />
  <path
     d="m 15,13.5 c -0.8091,0 -1.6,0.2375 -2.2728,0.6825 -0.6727,0.4451 -1.1971,1.0776 -1.5067,1.8176 -0.3096,0.7401 -0.3907,1.5544 -0.2328,2.34 0.1578,0.7856 0.5475,1.5073 1.1196,2.0737 0.5721,0.5664 1.301,0.9521 2.0946,1.1084 0.7936,0.1563 1.6161,0.076 2.3636,-0.2305 0.7475,-0.3065 1.3865,-0.8256 1.836,-1.4916 0.4495,-0.6661 0.6894,-1.4491 0.6894,-2.2501 0,-1.0741 -0.431,-2.1043 -1.1982,-2.8638 C 17.1255,13.9267 16.085,13.5 15,13.5 Z m 0,5.4 c -0.2697,0 -0.5333,-0.0792 -0.7576,-0.2275 -0.2242,-0.1484 -0.399,-0.3592 -0.5022,-0.6059 -0.1032,-0.2467 -0.1303,-0.5181 -0.0776,-0.78 0.0526,-0.2618 0.1825,-0.5024 0.3732,-0.6912 0.1907,-0.1888 0.4336,-0.3174 0.6982,-0.3695 0.2645,-0.0521 0.5387,-0.0253 0.7878,0.0769 0.2492,0.1021 0.4622,0.2752 0.612,0.4972 0.1499,0.222 0.2298,0.483 0.2298,0.75 0,0.358 -0.1436,0.7014 -0.3994,0.9546 C 15.7085,18.7578 15.3617,18.9 15,18.9 Z m -0.9682,-8.4915 c 0.1297,0.1229 0.2826,0.2192 0.45,0.2835 0.1632,0.0714 0.3397,0.1083 0.5182,0.1083 0.1785,0 0.355,-0.0369 0.5182,-0.1083 0.1674,-0.0643 0.3203,-0.1606 0.45,-0.2835 L 19.0909,7.371 C 19.3549,7.10963 19.5032,6.75513 19.5032,6.3855 19.5032,6.01587 19.3549,5.66137 19.0909,5.4 18.8269,5.13863 18.4688,4.99179 18.0955,4.99179 17.7221,4.99179 17.364,5.13863 17.1,5.4 L 16.3636,6.1965 V 1.35 C 16.3636,0.991958 16.22,0.64858 15.9642,0.395406 15.7085,0.142232 15.3617,0 15,0 14.6383,0 14.2915,0.142232 14.0358,0.395406 13.78,0.64858 13.6364,0.991958 13.6364,1.35 V 6.1965 L 12.9,5.4 C 12.636,5.13863 12.2779,4.99179 11.9045,4.99179 c -0.3733,0 -0.7314,0.14684 -0.9954,0.40821 -0.264,0.26137 -0.4123,0.61587 -0.4123,0.9855 0,0.36963 0.1483,0.72413 0.4123,0.9855 z M 24.5455,17.55 c 0,-0.267 -0.08,-0.528 -0.2299,-0.75 -0.1498,-0.222 -0.3628,-0.3951 -0.6119,-0.4972 -0.2492,-0.1022 -0.5234,-0.129 -0.7879,-0.0769 -0.2645,0.0521 -0.5075,0.1807 -0.6982,0.3695 -0.1907,0.1888 -0.3206,0.4294 -0.3732,0.6912 -0.0526,0.2619 -0.0256,0.5333 0.0776,0.78 0.1032,0.2467 0.278,0.4575 0.5022,0.6059 0.2243,0.1483 0.4879,0.2275 0.7576,0.2275 0.3617,0 0.7085,-0.1422 0.9643,-0.3954 0.2557,-0.2532 0.3994,-0.5966 0.3994,-0.9546 z M 25.9091,8.1 h -4.0909 c -0.3617,0 -0.7085,0.14223 -0.9643,0.39541 -0.2557,0.25317 -0.3994,0.59655 -0.3994,0.95459 0,0.35804 0.1437,0.7014 0.3994,0.9546 0.2558,0.2532 0.6026,0.3954 0.9643,0.3954 h 4.0909 c 0.3617,0 0.7085,0.1422 0.9642,0.3954 0.2558,0.2532 0.3994,0.5966 0.3994,0.9546 v 10.8 c 0,0.358 -0.1436,0.7014 -0.3994,0.9546 C 26.6176,24.1578 26.2708,24.3 25.9091,24.3 H 4.09091 C 3.72925,24.3 3.3824,24.1578 3.12667,23.9046 2.87094,23.6514 2.72727,23.308 2.72727,22.95 v -10.8 c 0,-0.358 0.14367,-0.7014 0.3994,-0.9546 C 3.3824,10.9422 3.72925,10.8 4.09091,10.8 h 4.09091 c 0.36166,0 0.7085,-0.1422 0.96423,-0.3954 C 9.40179,10.1514 9.54545,9.80804 9.54545,9.45 9.54545,9.09196 9.40179,8.74858 9.14605,8.49541 8.89032,8.24223 8.54348,8.1 8.18182,8.1 H 4.09091 C 3.00593,8.1 1.96539,8.5267 1.1982,9.28622 0.431005,10.0457 0,11.0759 0,12.15 v 10.8 c 0,1.0741 0.431005,2.1043 1.1982,2.8638 C 1.96539,26.5733 3.00593,27 4.09091,27 H 25.9091 c 1.085,0 2.1255,-0.4267 2.8927,-1.1862 C 29.569,25.0543 30,24.0241 30,22.95 V 12.15 C 30,11.0759 29.569,10.0457 28.8018,9.28622 28.0346,8.5267 26.9941,8.1 25.9091,8.1 Z M 5.45455,17.55 c 0,0.267 0.07997,0.528 0.22981,0.75 0.14984,0.222 0.36281,0.3951 0.61198,0.4972 0.24917,0.1022 0.52335,0.129 0.78787,0.0769 0.26452,-0.0521 0.5075,-0.1807 0.69821,-0.3695 0.19071,-0.1888 0.32058,-0.4294 0.3732,-0.6912 0.05261,-0.2619 0.02561,-0.5333 -0.0776,-0.78 C 7.97481,16.7867 7.80003,16.5759 7.57578,16.4275 7.35153,16.2792 7.08788,16.2 6.81818,16.2 c -0.36166,0 -0.7085,0.1422 -0.96423,0.3954 -0.25574,0.2532 -0.3994,0.5966 -0.3994,0.9546 z"
     fill="#ffffff"
     id="path2" />
</svg>
