<?xml version="1.0" encoding="UTF-8" standalone="no"?>
<svg
   width="33"
   height="33"
   viewBox="0 0 33 33"
   fill="none"
   version="1.1"
   id="svg4"
   sodipodi:docname="trf-out.svg"
   inkscape:version="1.2 (dc2aedaf03, 2022-05-15)"
   xmlns:inkscape="http://www.inkscape.org/namespaces/inkscape"
   xmlns:sodipodi="http://sodipodi.sourceforge.net/DTD/sodipodi-0.dtd"
   xmlns="http://www.w3.org/2000/svg"
   xmlns:svg="http://www.w3.org/2000/svg">
  <defs
     id="defs8" />
  <sodipodi:namedview
     id="namedview6"
     pagecolor="#505050"
     bordercolor="#ffffff"
     borderopacity="1"
     inkscape:showpageshadow="0"
     inkscape:pageopacity="0"
     inkscape:pagecheckerboard="1"
     inkscape:deskcolor="#505050"
     showgrid="false"
     inkscape:zoom="17.227692"
     inkscape:cx="11.231916"
     inkscape:cy="14.308358"
     inkscape:window-width="1920"
     inkscape:window-height="991"
     inkscape:window-x="-9"
     inkscape:window-y="-9"
     inkscape:window-maximized="1"
     inkscape:current-layer="svg4" />
  <path
     d="m 14.484477,5.4931475 0.7425,-0.81125 v 4.93627 c 0,0.3647002 0.1449,0.7144005 0.4027,0.9722005 0.2579,0.2579 0.6076,0.4028 0.9723,0.4028 0.3647,0 0.7144,-0.1449 0.9723,-0.4028 0.2578,-0.2578 0.4027,-0.6075003 0.4027,-0.9722005 v -4.93627 l 0.7425,0.75625 c 0.1248,0.14097 0.2772,0.2548 0.4479,0.33444 0.1706,0.07965 0.3557,0.1234 0.5439,0.12856 0.1882,0.00516 0.3755,-0.0284 0.5502,-0.09858 0.1747,-0.07018 0.3332,-0.1755 0.4655,-0.30942 0.1289,-0.12783 0.2312,-0.2799 0.301,-0.44746 0.0698,-0.16755 0.1057,-0.34727 0.1057,-0.52879 0,-0.18152 -0.0359,-0.36124 -0.1057,-0.52879 -0.0698,-0.16756 -0.1721,-0.31964 -0.301,-0.44746 l -3.1487,-3.14875 c -0.1308,-0.12518 -0.285,-0.22331 -0.4538,-0.28875 -0.3348,-0.13753 -0.7102,-0.13753 -1.045,0 -0.1688,0.06544 -0.323,0.16357 -0.4537,0.28875 l -3.1488,3.09375 c -0.2662,0.26621 -0.4158,0.62727 -0.4158,1.00375 0,0.37648 0.1496,0.73754 0.4158,1.00375 0.2662,0.26621 0.6273,0.41577 1.0038,0.41577 0.3764,0 0.7375,-0.14956 1.0037,-0.41577 z m 2.1175,8.2500205 c -0.8158,0 -1.6134,0.2419 -2.2917,0.6952 -0.6784,0.4532 -1.2071,1.0975 -1.5193,1.851199 -0.3122,0.7538 -0.3939,1.5832 -0.2347,2.3833 0.1591,0.8002 0.552,1.5352 1.1289,2.1121 0.5769,0.5769 1.3119,0.9698 2.1121,1.1289 0.8001,0.1592 1.6295,0.0775 2.3833,-0.2347 0.7537,-0.3122 1.398,-0.8409 1.8512,-1.5193 0.4533,-0.6784 0.6952,-1.4759 0.6952,-2.2917 0,-1.094 -0.4346,-2.1433 -1.2082,-2.9168 -0.7736,-0.773599 -1.8228,-1.208199 -2.9168,-1.208199 z m 0,5.499999 c -0.2719,0 -0.5378,-0.0807 -0.7639,-0.2318 -0.2261,-0.151 -0.4024,-0.3658 -0.5064,-0.617 -0.1041,-0.2513 -0.1313,-0.5277 -0.0783,-0.7945 0.0531,-0.2667 0.184,-0.5117 0.3763,-0.704 0.1923,-0.1923 0.4373,-0.3232 0.7041,-0.3763 0.2667,-0.0531 0.5431,-0.0258 0.7944,0.0782 0.2512,0.1041 0.466,0.2804 0.6171,0.5065 0.1511,0.2261 0.2317,0.4919 0.2317,0.7639 0,0.3647 -0.1449,0.7144 -0.4027,0.9722 -0.2579,0.2579 -0.6076,0.4028 -0.9723,0.4028 z m -9.6249996,-1.375 c 0,0.2719 0.08064,0.5378 0.23173,0.7639 0.15109,0.2261 0.36583,0.4023 0.61708,0.5064 0.25125,0.1041 0.52772,0.1313 0.79444,0.0783 0.26672,-0.0531 0.51173,-0.1841 0.70402,-0.3764 0.1923,-0.1922 0.32323,-0.4372 0.37633,-0.704 0.053,-0.2667 0.0258,-0.5432 -0.0783,-0.7944 -0.10404,-0.2513 -0.28027,-0.466 -0.50639,-0.6171 -0.22612,-0.1511 -0.49196,-0.2317 -0.76391,-0.2317 -0.36467,0 -0.71441,0.1448 -0.97227,0.4027 -0.25786,0.2579 -0.40273,0.6076 -0.40273,0.9723 z m 19.2499996,0 c 0,-0.272 -0.0806,-0.5378 -0.2317,-0.7639 -0.1511,-0.2261 -0.3659,-0.4024 -0.6171,-0.5065 -0.2513,-0.104 -0.5277,-0.1313 -0.7944,-0.0782 -0.2668,0.0531 -0.5118,0.184001 -0.7041,0.376301 -0.1923,0.192299 -0.3232,0.4373 -0.3763,0.704 -0.053,0.2668 -0.0258,0.543199 0.0783,0.7945 0.104,0.2512 0.2803,0.466 0.5064,0.617 0.2261,0.1511 0.492,0.2318 0.7639,0.2318 0.3647,0 0.7144,-0.1449 0.9723,-0.4028 0.2578,-0.2578 0.4027,-0.607501 0.4027,-0.972201 z m 1.375,-9.6249995 h -5.5 c -0.3647,0 -0.7144,0.1448 -0.9723,0.4027 -0.2578,0.2579 -0.4027,0.6076 -0.4027,0.9723 0,0.3647002 0.1449,0.7144005 0.4027,0.9722005 0.2579,0.2579 0.6076,0.4028 0.9723,0.4028 h 5.5 c 0.3647,0 0.7144,0.1448 0.9723,0.4027 0.2578,0.257899 0.4027,0.607599 0.4027,0.9723 v 10.999999 c 0,0.3647 -0.1449,0.7144 -0.4027,0.9723 -0.2579,0.2578 -0.6076,0.4027 -0.9723,0.4027 H 5.6019774 c -0.36467,0 -0.71441,-0.1449 -0.97227,-0.4027 -0.25786,-0.2579 -0.40273,-0.6076 -0.40273,-0.9723 V 12.368168 c 0,-0.3647 0.14487,-0.7144 0.40273,-0.9723 0.25786,-0.2579 0.6076,-0.4027 0.97227,-0.4027 h 5.4999996 c 0.3647,0 0.7144,-0.1449 0.9723,-0.4028 0.2578,-0.2578 0.4027,-0.6075003 0.4027,-0.9722005 0,-0.3647 -0.1449,-0.7144 -0.4027,-0.9723 -0.2579,-0.2579 -0.6076,-0.4027 -0.9723,-0.4027 H 5.6019774 c -1.09402,0 -2.14323,0.4346 -2.91681,1.2082 -0.77359,0.7736005 -1.20819,1.8228005 -1.20819,2.9168005 v 10.999999 c 0,1.094 0.4346,2.1432 1.20819,2.9168 0.77358,0.7736 1.82279,1.2082 2.91681,1.2082 H 27.601977 c 1.094,0 2.1432,-0.4346 2.9168,-1.2082 0.7736,-0.7736 1.2082,-1.8228 1.2082,-2.9168 V 12.368168 c 0,-1.094 -0.4346,-2.1432 -1.2082,-2.9168005 -0.7736,-0.7736 -1.8228,-1.2082 -2.9168,-1.2082 z"
     fill="#ffffff"
     id="path2" />
</svg>
