<svg width="123" height="49" viewBox="0 0 123 49" fill="none" xmlns="http://www.w3.org/2000/svg">
<path d="M30.1528 0.117695C27.7168 -0.381236 25.1781 0.792721 23.9014 3.00856C23.5933 3.53685 23.3732 4.09448 23.2411 4.68145C22.6688 2.42159 20.8932 0.572604 18.6333 0.117695C16.1973 -0.381236 13.6587 0.792721 12.3673 3.00856C12.0591 3.53685 11.839 4.09448 11.707 4.68145C11.1347 2.42159 9.35904 0.587278 7.09918 0.117695C4.66322 -0.381236 2.12453 0.792721 0.833181 3.00856C-0.443498 5.23908 -0.238055 8.1593 1.34679 10.1697C2.93163 12.1801 5.61706 12.9579 7.96497 12.0774C9.82863 11.373 11.2227 9.7148 11.7216 7.74842C11.9271 8.62889 12.3233 9.45065 12.8809 10.1697C14.4658 12.1801 17.1512 12.9579 19.4991 12.0774C21.3628 11.373 22.7568 9.7148 23.2558 7.74842C23.4612 8.62889 23.8574 9.45065 24.415 10.1697C25.9999 12.1801 28.6853 12.9579 31.0332 12.0774C33.3665 11.1969 34.9807 8.81965 34.9807 6.22227C34.9807 3.28738 32.9409 0.69 30.1821 0.117695H30.1528Z" fill="#EEF1F6"/>
<path d="M11.1344 30.3468C11.7361 33.0615 13.2916 35.5855 15.9917 36.3486C18.5597 37.0823 21.4212 35.8937 22.7419 33.4577C23.5343 32.005 23.4316 30.3468 23.4316 28.7326C23.4316 27.6467 23.4316 26.5607 23.4316 25.4748C23.4316 24.2715 23.4316 23.0829 23.4316 21.8796C23.4316 20.3534 23.4023 18.8566 24.1213 17.4626C25.1339 15.5402 27.1443 14.3516 29.2427 14.4396C31.3558 14.5277 33.2929 15.9218 34.1293 17.9468C34.6869 19.2969 34.5989 20.7643 34.5989 22.2024C34.5989 23.3911 34.5989 24.5797 34.5989 25.7536C34.5989 28.3217 34.7456 30.9924 34.276 33.5018C33.1755 39.3422 29.3014 44.4196 24.0626 46.7675C18.8092 49.1007 12.6019 48.4844 7.87668 45.1533C5.54344 43.5097 3.62109 41.2352 2.35909 38.6231C1.11176 36.0258 0.348686 32.7827 0.832943 29.8772C1.18513 27.7054 2.82867 25.9444 4.89777 25.5042C7.04024 25.0493 9.28543 26.0765 10.4007 28.0429C10.8116 28.7472 10.9877 29.525 11.1638 30.3321L11.1344 30.3468Z" fill="#EEF1F6"/>
<path d="M60.7782 35.8426C59.0955 35.8426 57.7063 35.4121 56.6106 34.5512C55.5247 33.6903 54.7519 32.5261 54.2921 31.0587L58.2248 30.1195C58.3129 30.6576 58.5966 31.1272 59.0759 31.5283C59.5553 31.9196 60.064 32.1153 60.6021 32.1153C60.9738 32.1153 61.37 32.0125 61.7907 31.8071C62.2212 31.6017 62.5293 31.2739 62.7152 30.8239C62.8326 30.5402 62.9011 30.1929 62.9206 29.782C62.9402 29.3711 62.95 28.8967 62.95 28.3586V14.2711H67.0001V28.3586C67.0001 29.0336 66.9952 29.6206 66.9855 30.1195C66.9855 30.6185 66.9365 31.0881 66.8387 31.5283C66.7507 31.9587 66.5697 32.4088 66.2958 32.8783C65.699 33.9153 64.9213 34.6686 63.9625 35.1382C63.0038 35.6078 61.9423 35.8426 60.7782 35.8426ZM75.7959 35.8426C74.661 35.8426 73.6974 35.6274 72.905 35.1969C72.1224 34.7567 71.5256 34.1746 71.1147 33.4506C70.7136 32.7169 70.5131 31.9098 70.5131 31.0294C70.5131 30.2956 70.6256 29.6255 70.8506 29.019C71.0756 28.4124 71.4376 27.8792 71.9365 27.4194C72.4452 26.9499 73.1251 26.5585 73.9762 26.2455C74.5632 26.0303 75.2627 25.8395 76.0747 25.6732C76.8867 25.5069 77.8063 25.3503 78.8335 25.2036C79.8607 25.0471 80.9906 24.8759 82.2233 24.69L80.7852 25.4824C80.7852 24.5432 80.5602 23.8535 80.1102 23.4133C79.6601 22.9731 78.9069 22.753 77.8503 22.753C77.2633 22.753 76.6519 22.8948 76.016 23.1785C75.3801 23.4622 74.935 23.966 74.6806 24.69L71.0707 23.5454C71.4718 22.2345 72.2251 21.1681 73.3306 20.3463C74.436 19.5246 75.9426 19.1137 77.8503 19.1137C79.2493 19.1137 80.4917 19.3289 81.5776 19.7594C82.6635 20.1898 83.4853 20.9333 84.0429 21.9899C84.356 22.5769 84.5419 23.1638 84.6006 23.7508C84.6593 24.3378 84.6886 24.9933 84.6886 25.7172V35.4023H81.1961V32.1446L81.695 32.8196C80.9222 33.886 80.0857 34.6588 79.1857 35.1382C78.2954 35.6078 77.1655 35.8426 75.7959 35.8426ZM76.647 32.7022C77.3807 32.7022 77.997 32.5751 78.496 32.3207C79.0047 32.0566 79.4058 31.7582 79.6993 31.4256C80.0026 31.0929 80.208 30.8141 80.3156 30.5891C80.5211 30.1587 80.6384 29.6597 80.6678 29.0923C80.7069 28.5151 80.7265 28.0358 80.7265 27.6542L81.9005 27.9477C80.7167 28.1434 79.758 28.3097 79.0243 28.4466C78.2905 28.5738 77.6987 28.6912 77.2486 28.7988C76.7986 28.9064 76.4024 29.0238 76.06 29.151C75.6687 29.3075 75.3507 29.4788 75.1062 29.6646C74.8714 29.8407 74.6953 30.0364 74.5779 30.2516C74.4703 30.4668 74.4165 30.7065 74.4165 30.9707C74.4165 31.3326 74.5045 31.6457 74.6806 31.9098C74.8665 32.1642 75.1257 32.3598 75.4584 32.4968C75.791 32.6338 76.1872 32.7022 76.647 32.7022ZM95.2838 42.8863C94.3838 42.8863 93.5277 42.7396 92.7158 42.4461C91.9038 42.1624 91.1749 41.7613 90.5293 41.2428C89.8934 40.7341 89.3749 40.1373 88.9738 39.4525L92.6717 37.6622C92.9261 38.1318 93.2881 38.4889 93.7576 38.7334C94.237 38.978 94.7555 39.1003 95.3131 39.1003C95.9099 39.1003 96.4724 38.9976 97.0007 38.7921C97.529 38.5965 97.9497 38.2981 98.2627 37.897C98.5855 37.5057 98.7372 37.0165 98.7176 36.4296V31.8218H99.2165V19.5539H102.709V36.4883C102.709 36.8796 102.69 37.2464 102.65 37.5888C102.621 37.941 102.562 38.2883 102.474 38.6307C102.22 39.5992 101.745 40.3966 101.051 41.0227C100.366 41.6488 99.5247 42.1135 98.5268 42.4167C97.529 42.7298 96.448 42.8863 95.2838 42.8863ZM94.9316 35.8426C93.4739 35.8426 92.1973 35.4757 91.1016 34.742C90.0059 34.0083 89.1499 33.0104 88.5335 31.7484C87.927 30.4864 87.6237 29.063 87.6237 27.4781C87.6237 25.8639 87.9319 24.4307 88.5482 23.1785C89.1743 21.9165 90.0499 20.9235 91.1749 20.1996C92.3 19.4757 93.6207 19.1137 95.137 19.1137C96.6436 19.1137 97.9105 19.4806 98.9377 20.2143C99.9649 20.948 100.743 21.9459 101.271 23.2079C101.799 24.4699 102.063 25.8933 102.063 27.4781C102.063 29.063 101.794 30.4864 101.256 31.7484C100.728 33.0104 99.9356 34.0083 98.879 34.742C97.8225 35.4757 96.5067 35.8426 94.9316 35.8426ZM95.5773 32.2914C96.4675 32.2914 97.1768 32.0908 97.7051 31.6897C98.2431 31.2886 98.6296 30.7261 98.8644 30.0021C99.0992 29.2782 99.2165 28.4369 99.2165 27.4781C99.2165 26.5194 99.0992 25.6781 98.8644 24.9541C98.6296 24.2302 98.2529 23.6677 97.7344 23.2666C97.2257 22.8655 96.5556 22.6649 95.724 22.6649C94.8338 22.6649 94.1001 22.885 93.5229 23.3253C92.9554 23.7557 92.5348 24.3378 92.2609 25.0715C91.9869 25.7955 91.85 26.5977 91.85 27.4781C91.85 28.3684 91.982 29.1804 92.2462 29.9141C92.5103 30.638 92.9163 31.2152 93.4642 31.6457C94.012 32.0761 94.7164 32.2914 95.5773 32.2914ZM111.221 35.8426C110.086 35.8426 109.122 35.6274 108.33 35.1969C107.547 34.7567 106.951 34.1746 106.54 33.4506C106.139 32.7169 105.938 31.9098 105.938 31.0294C105.938 30.2956 106.051 29.6255 106.276 29.019C106.501 28.4124 106.863 27.8792 107.362 27.4194C107.87 26.9499 108.55 26.5585 109.401 26.2455C109.988 26.0303 110.688 25.8395 111.5 25.6732C112.312 25.5069 113.231 25.3503 114.259 25.2036C115.286 25.0471 116.416 24.8759 117.648 24.69L116.21 25.4824C116.21 24.5432 115.985 23.8535 115.535 23.4133C115.085 22.9731 114.332 22.753 113.275 22.753C112.688 22.753 112.077 22.8948 111.441 23.1785C110.805 23.4622 110.36 23.966 110.106 24.69L106.496 23.5454C106.897 22.2345 107.65 21.1681 108.756 20.3463C109.861 19.5246 111.368 19.1137 113.275 19.1137C114.674 19.1137 115.917 19.3289 117.003 19.7594C118.089 20.1898 118.91 20.9333 119.468 21.9899C119.781 22.5769 119.967 23.1638 120.026 23.7508C120.084 24.3378 120.114 24.9933 120.114 25.7172V35.4023H116.621V32.1446L117.12 32.8196C116.347 33.886 115.511 34.6588 114.611 35.1382C113.72 35.6078 112.591 35.8426 111.221 35.8426ZM112.072 32.7022C112.806 32.7022 113.422 32.5751 113.921 32.3207C114.43 32.0566 114.831 31.7582 115.124 31.4256C115.428 31.0929 115.633 30.8141 115.741 30.5891C115.946 30.1587 116.064 29.6597 116.093 29.0923C116.132 28.5151 116.152 28.0358 116.152 27.6542L117.326 27.9477C116.142 28.1434 115.183 28.3097 114.449 28.4466C113.716 28.5738 113.124 28.6912 112.674 28.7988C112.224 28.9064 111.827 29.0238 111.485 29.151C111.094 29.3075 110.776 29.4788 110.531 29.6646C110.296 29.8407 110.12 30.0364 110.003 30.2516C109.895 30.4668 109.842 30.7065 109.842 30.9707C109.842 31.3326 109.93 31.6457 110.106 31.9098C110.292 32.1642 110.551 32.3598 110.883 32.4968C111.216 32.6338 111.612 32.7022 112.072 32.7022Z" fill="#EEF1F6"/>
</svg>
