<svg width="28" height="28" viewBox="0 0 28 28" fill="none" xmlns="http://www.w3.org/2000/svg">
<path d="M11.6667 20.9999V17.4999C11.6667 16.8811 11.9125 16.2876 12.3501 15.85C12.7877 15.4124 13.3812 15.1666 14 15.1666C14.6188 15.1666 15.2123 15.4124 15.6499 15.85C16.0875 16.2876 16.3333 16.8811 16.3333 17.4999V20.9999M2.33333 9.33323L13.6873 3.65623C13.7844 3.60775 13.8915 3.58252 14 3.58252C14.1085 3.58252 14.2156 3.60775 14.3127 3.65623L25.6667 9.33323" stroke="#606D93" stroke-width="2" stroke-linecap="round" stroke-linejoin="round"/>
<path d="M23.3333 12.8333V22.1666C23.3333 22.7854 23.0875 23.3789 22.6499 23.8165C22.2123 24.2541 21.6188 24.4999 21 24.4999H6.99999C6.38115 24.4999 5.78766 24.2541 5.35007 23.8165C4.91249 23.3789 4.66666 22.7854 4.66666 22.1666V12.8333" stroke="#606D93" stroke-width="2" stroke-linecap="round" stroke-linejoin="round"/>
</svg>
