<svg width="40" height="40" viewBox="0 0 40 40" fill="none" xmlns="http://www.w3.org/2000/svg">
<path d="M16.25 6.25H8.75C8.08696 6.25 7.45107 6.51339 6.98223 6.98223C6.51339 7.45107 6.25 8.08696 6.25 8.75V16.25C6.25 16.913 6.51339 17.5489 6.98223 18.0178C7.45107 18.4866 8.08696 18.75 8.75 18.75H16.25C16.913 18.75 17.5489 18.4866 18.0178 18.0178C18.4866 17.5489 18.75 16.913 18.75 16.25V8.75C18.75 8.08696 18.4866 7.45107 18.0178 6.98223C17.5489 6.51339 16.913 6.25 16.25 6.25ZM16.25 16.25H8.75V8.75H16.25V16.25ZM16.25 21.25H8.75C8.08696 21.25 7.45107 21.5134 6.98223 21.9822C6.51339 22.4511 6.25 23.087 6.25 23.75V31.25C6.25 31.913 6.51339 32.5489 6.98223 33.0178C7.45107 33.4866 8.08696 33.75 8.75 33.75H16.25C16.913 33.75 17.5489 33.4866 18.0178 33.0178C18.4866 32.5489 18.75 31.913 18.75 31.25V23.75C18.75 23.087 18.4866 22.4511 18.0178 21.9822C17.5489 21.5134 16.913 21.25 16.25 21.25ZM16.25 31.25H8.75V23.75H16.25V31.25ZM31.25 6.25H23.75C23.087 6.25 22.4511 6.51339 21.9822 6.98223C21.5134 7.45107 21.25 8.08696 21.25 8.75V16.25C21.25 16.913 21.5134 17.5489 21.9822 18.0178C22.4511 18.4866 23.087 18.75 23.75 18.75H31.25C31.913 18.75 32.5489 18.4866 33.0178 18.0178C33.4866 17.5489 33.75 16.913 33.75 16.25V8.75C33.75 8.08696 33.4866 7.45107 33.0178 6.98223C32.5489 6.51339 31.913 6.25 31.25 6.25ZM31.25 16.25H23.75V8.75H31.25V16.25ZM21.25 27.5V22.5C21.25 22.1685 21.3817 21.8505 21.6161 21.6161C21.8505 21.3817 22.1685 21.25 22.5 21.25C22.8315 21.25 23.1495 21.3817 23.3839 21.6161C23.6183 21.8505 23.75 22.1685 23.75 22.5V27.5C23.75 27.8315 23.6183 28.1495 23.3839 28.3839C23.1495 28.6183 22.8315 28.75 22.5 28.75C22.1685 28.75 21.8505 28.6183 21.6161 28.3839C21.3817 28.1495 21.25 27.8315 21.25 27.5ZM33.75 25C33.75 25.3315 33.6183 25.6495 33.3839 25.8839C33.1495 26.1183 32.8315 26.25 32.5 26.25H28.75V32.5C28.75 32.8315 28.6183 33.1495 28.3839 33.3839C28.1495 33.6183 27.8315 33.75 27.5 33.75H22.5C22.1685 33.75 21.8505 33.6183 21.6161 33.3839C21.3817 33.1495 21.25 32.8315 21.25 32.5C21.25 32.1685 21.3817 31.8505 21.6161 31.6161C21.8505 31.3817 22.1685 31.25 22.5 31.25H26.25V22.5C26.25 22.1685 26.3817 21.8505 26.6161 21.6161C26.8505 21.3817 27.1685 21.25 27.5 21.25C27.8315 21.25 28.1495 21.3817 28.3839 21.6161C28.6183 21.8505 28.75 22.1685 28.75 22.5V23.75H32.5C32.8315 23.75 33.1495 23.8817 33.3839 24.1161C33.6183 24.3505 33.75 24.6685 33.75 25ZM33.75 30V32.5C33.75 32.8315 33.6183 33.1495 33.3839 33.3839C33.1495 33.6183 32.8315 33.75 32.5 33.75C32.1685 33.75 31.8505 33.6183 31.6161 33.3839C31.3817 33.1495 31.25 32.8315 31.25 32.5V30C31.25 29.6685 31.3817 29.3505 31.6161 29.1161C31.8505 28.8817 32.1685 28.75 32.5 28.75C32.8315 28.75 33.1495 28.8817 33.3839 29.1161C33.6183 29.3505 33.75 29.6685 33.75 30Z" fill="#EEF1F6"/>
</svg>
