<svg width="28" height="28" viewBox="0 0 28 28" fill="none" xmlns="http://www.w3.org/2000/svg">
<mask id="path-1-outside-1_276_40" maskUnits="userSpaceOnUse" x="1" y="3" width="26" height="24" fill="black">
<rect fill="white" x="1" y="3" width="26" height="24"/>
<path d="M11.8 8.2C11.0574 8.2 10.3452 8.495 9.8201 9.0201C9.295 9.5452 9 10.2574 9 11C9 11.7426 9.295 12.4548 9.8201 12.9799C10.3452 13.505 11.0574 13.8 11.8 13.8C12.5426 13.8 13.2548 13.505 13.7799 12.9799C14.305 12.4548 14.6 11.7426 14.6 11C14.6 10.2574 14.305 9.5452 13.7799 9.0201C13.2548 8.495 12.5426 8.2 11.8 8.2ZM10.4 11C10.4 10.6287 10.5475 10.2726 10.8101 10.0101C11.0726 9.7475 11.4287 9.6 11.8 9.6C12.1713 9.6 12.5274 9.7475 12.7899 10.0101C13.0525 10.2726 13.2 10.6287 13.2 11C13.2 11.3713 13.0525 11.7274 12.7899 11.9899C12.5274 12.2525 12.1713 12.4 11.8 12.4C11.4287 12.4 11.0726 12.2525 10.8101 11.9899C10.5475 11.7274 10.4 11.3713 10.4 11ZM2 6.1C2 5.54305 2.22125 5.0089 2.61508 4.61508C3.0089 4.22125 3.54305 4 4.1 4H19.5C20.057 4 20.5911 4.22125 20.9849 4.61508C21.3787 5.0089 21.6 5.54305 21.6 6.1V11H20.2V9.6H18.8C18.0574 9.6 17.3452 9.305 16.8201 8.7799C16.295 8.2548 16 7.54261 16 6.8V5.4H7.6V6.8C7.6 7.54261 7.305 8.2548 6.7799 8.7799C6.2548 9.305 5.54261 9.6 4.8 9.6H3.4V12.4H4.8C5.54261 12.4 6.2548 12.695 6.7799 13.2201C7.305 13.7452 7.6 14.4574 7.6 15.2V16.6H14.6V18H4.1C3.54305 18 3.0089 17.7788 2.61508 17.3849C2.22125 16.9911 2 16.457 2 15.9V6.1ZM4.1 5.4C3.91435 5.4 3.7363 5.47375 3.60503 5.60503C3.47375 5.7363 3.4 5.91435 3.4 6.1V8.2H4.8C5.1713 8.2 5.5274 8.0525 5.78995 7.78995C6.0525 7.5274 6.2 7.1713 6.2 6.8V5.4H4.1ZM19.5 5.4H17.4V6.8C17.4 7.1713 17.5475 7.5274 17.8101 7.78995C18.0726 8.0525 18.4287 8.2 18.8 8.2H20.2V6.1C20.2 5.91435 20.1262 5.7363 19.995 5.60503C19.8637 5.47375 19.6857 5.4 19.5 5.4ZM4.1 16.6H6.2V15.2C6.2 14.8287 6.0525 14.4726 5.78995 14.2101C5.5274 13.9475 5.1713 13.8 4.8 13.8H3.4V15.9C3.4 16.0857 3.47375 16.2637 3.60503 16.395C3.7363 16.5262 3.91435 16.6 4.1 16.6ZM23 11V6.919C23.4096 7.06382 23.7642 7.33211 24.015 7.68691C24.2657 8.04171 24.4002 8.46554 24.4 8.9V11H23ZM14.6 19.4V20.8H6.9C6.46554 20.8002 6.04171 20.6657 5.68691 20.415C5.33211 20.1642 5.06382 19.8096 4.919 19.4H14.6ZM18.1 12.4C17.543 12.4 17.0089 12.6212 16.6151 13.0151C16.2212 13.4089 16 13.943 16 14.5V24.3C16 24.857 16.2212 25.3911 16.6151 25.7849C17.0089 26.1787 17.543 26.4 18.1 26.4H23.7C24.257 26.4 24.7911 26.1787 25.1849 25.7849C25.5787 25.3911 25.8 24.857 25.8 24.3V14.5C25.8 13.943 25.5787 13.4089 25.1849 13.0151C24.7911 12.6212 24.257 12.4 23.7 12.4H18.1ZM18.1 18H19.5C19.6857 18 19.8637 18.0737 19.995 18.205C20.1262 18.3363 20.2 18.5143 20.2 18.7C20.2 18.8857 20.1262 19.0637 19.995 19.195C19.8637 19.3263 19.6857 19.4 19.5 19.4H18.1C17.9143 19.4 17.7363 19.3263 17.605 19.195C17.4737 19.0637 17.4 18.8857 17.4 18.7C17.4 18.5143 17.4737 18.3363 17.605 18.205C17.7363 18.0737 17.9143 18 18.1 18ZM22.3 18H23.7C23.8857 18 24.0637 18.0737 24.195 18.205C24.3263 18.3363 24.4 18.5143 24.4 18.7C24.4 18.8857 24.3263 19.0637 24.195 19.195C24.0637 19.3263 23.8857 19.4 23.7 19.4H22.3C22.1143 19.4 21.9363 19.3263 21.805 19.195C21.6737 19.0637 21.6 18.8857 21.6 18.7C21.6 18.5143 21.6737 18.3363 21.805 18.205C21.9363 18.0737 22.1143 18 22.3 18ZM18.1 20.8H19.5C19.6857 20.8 19.8637 20.8737 19.995 21.005C20.1262 21.1363 20.2 21.3143 20.2 21.5C20.2 21.6857 20.1262 21.8637 19.995 21.995C19.8637 22.1262 19.6857 22.2 19.5 22.2H18.1C17.9143 22.2 17.7363 22.1262 17.605 21.995C17.4737 21.8637 17.4 21.6857 17.4 21.5C17.4 21.3143 17.4737 21.1363 17.605 21.005C17.7363 20.8737 17.9143 20.8 18.1 20.8ZM22.3 20.8H23.7C23.8857 20.8 24.0637 20.8737 24.195 21.005C24.3263 21.1363 24.4 21.3143 24.4 21.5C24.4 21.6857 24.3263 21.8637 24.195 21.995C24.0637 22.1262 23.8857 22.2 23.7 22.2H22.3C22.1143 22.2 21.9363 22.1262 21.805 21.995C21.6737 21.8637 21.6 21.6857 21.6 21.5C21.6 21.3143 21.6737 21.1363 21.805 21.005C21.9363 20.8737 22.1143 20.8 22.3 20.8ZM18.1 23.6H19.5C19.6857 23.6 19.8637 23.6737 19.995 23.805C20.1262 23.9363 20.2 24.1143 20.2 24.3C20.2 24.4857 20.1262 24.6637 19.995 24.795C19.8637 24.9263 19.6857 25 19.5 25H18.1C17.9143 25 17.7363 24.9263 17.605 24.795C17.4737 24.6637 17.4 24.4857 17.4 24.3C17.4 24.1143 17.4737 23.9363 17.605 23.805C17.7363 23.6737 17.9143 23.6 18.1 23.6ZM22.3 23.6H23.7C23.8857 23.6 24.0637 23.6737 24.195 23.805C24.3263 23.9363 24.4 24.1143 24.4 24.3C24.4 24.4857 24.3263 24.6637 24.195 24.795C24.0637 24.9263 23.8857 25 23.7 25H22.3C22.1143 25 21.9363 24.9263 21.805 24.795C21.6737 24.6637 21.6 24.4857 21.6 24.3C21.6 24.1143 21.6737 23.9363 21.805 23.805C21.9363 23.6737 22.1143 23.6 22.3 23.6ZM17.4 14.5C17.4 14.3143 17.4737 14.1363 17.605 14.005C17.7363 13.8737 17.9143 13.8 18.1 13.8H23.7C23.8857 13.8 24.0637 13.8737 24.195 14.005C24.3263 14.1363 24.4 14.3143 24.4 14.5V15.9C24.4 16.0857 24.3263 16.2637 24.195 16.395C24.0637 16.5262 23.8857 16.6 23.7 16.6H18.1C17.9143 16.6 17.7363 16.5262 17.605 16.395C17.4737 16.2637 17.4 16.0857 17.4 15.9V14.5Z"/>
</mask>
<path d="M11.8 8.2C11.0574 8.2 10.3452 8.495 9.8201 9.0201C9.295 9.5452 9 10.2574 9 11C9 11.7426 9.295 12.4548 9.8201 12.9799C10.3452 13.505 11.0574 13.8 11.8 13.8C12.5426 13.8 13.2548 13.505 13.7799 12.9799C14.305 12.4548 14.6 11.7426 14.6 11C14.6 10.2574 14.305 9.5452 13.7799 9.0201C13.2548 8.495 12.5426 8.2 11.8 8.2ZM10.4 11C10.4 10.6287 10.5475 10.2726 10.8101 10.0101C11.0726 9.7475 11.4287 9.6 11.8 9.6C12.1713 9.6 12.5274 9.7475 12.7899 10.0101C13.0525 10.2726 13.2 10.6287 13.2 11C13.2 11.3713 13.0525 11.7274 12.7899 11.9899C12.5274 12.2525 12.1713 12.4 11.8 12.4C11.4287 12.4 11.0726 12.2525 10.8101 11.9899C10.5475 11.7274 10.4 11.3713 10.4 11ZM2 6.1C2 5.54305 2.22125 5.0089 2.61508 4.61508C3.0089 4.22125 3.54305 4 4.1 4H19.5C20.057 4 20.5911 4.22125 20.9849 4.61508C21.3787 5.0089 21.6 5.54305 21.6 6.1V11H20.2V9.6H18.8C18.0574 9.6 17.3452 9.305 16.8201 8.7799C16.295 8.2548 16 7.54261 16 6.8V5.4H7.6V6.8C7.6 7.54261 7.305 8.2548 6.7799 8.7799C6.2548 9.305 5.54261 9.6 4.8 9.6H3.4V12.4H4.8C5.54261 12.4 6.2548 12.695 6.7799 13.2201C7.305 13.7452 7.6 14.4574 7.6 15.2V16.6H14.6V18H4.1C3.54305 18 3.0089 17.7788 2.61508 17.3849C2.22125 16.9911 2 16.457 2 15.9V6.1ZM4.1 5.4C3.91435 5.4 3.7363 5.47375 3.60503 5.60503C3.47375 5.7363 3.4 5.91435 3.4 6.1V8.2H4.8C5.1713 8.2 5.5274 8.0525 5.78995 7.78995C6.0525 7.5274 6.2 7.1713 6.2 6.8V5.4H4.1ZM19.5 5.4H17.4V6.8C17.4 7.1713 17.5475 7.5274 17.8101 7.78995C18.0726 8.0525 18.4287 8.2 18.8 8.2H20.2V6.1C20.2 5.91435 20.1262 5.7363 19.995 5.60503C19.8637 5.47375 19.6857 5.4 19.5 5.4ZM4.1 16.6H6.2V15.2C6.2 14.8287 6.0525 14.4726 5.78995 14.2101C5.5274 13.9475 5.1713 13.8 4.8 13.8H3.4V15.9C3.4 16.0857 3.47375 16.2637 3.60503 16.395C3.7363 16.5262 3.91435 16.6 4.1 16.6ZM23 11V6.919C23.4096 7.06382 23.7642 7.33211 24.015 7.68691C24.2657 8.04171 24.4002 8.46554 24.4 8.9V11H23ZM14.6 19.4V20.8H6.9C6.46554 20.8002 6.04171 20.6657 5.68691 20.415C5.33211 20.1642 5.06382 19.8096 4.919 19.4H14.6ZM18.1 12.4C17.543 12.4 17.0089 12.6212 16.6151 13.0151C16.2212 13.4089 16 13.943 16 14.5V24.3C16 24.857 16.2212 25.3911 16.6151 25.7849C17.0089 26.1787 17.543 26.4 18.1 26.4H23.7C24.257 26.4 24.7911 26.1787 25.1849 25.7849C25.5787 25.3911 25.8 24.857 25.8 24.3V14.5C25.8 13.943 25.5787 13.4089 25.1849 13.0151C24.7911 12.6212 24.257 12.4 23.7 12.4H18.1ZM18.1 18H19.5C19.6857 18 19.8637 18.0737 19.995 18.205C20.1262 18.3363 20.2 18.5143 20.2 18.7C20.2 18.8857 20.1262 19.0637 19.995 19.195C19.8637 19.3263 19.6857 19.4 19.5 19.4H18.1C17.9143 19.4 17.7363 19.3263 17.605 19.195C17.4737 19.0637 17.4 18.8857 17.4 18.7C17.4 18.5143 17.4737 18.3363 17.605 18.205C17.7363 18.0737 17.9143 18 18.1 18ZM22.3 18H23.7C23.8857 18 24.0637 18.0737 24.195 18.205C24.3263 18.3363 24.4 18.5143 24.4 18.7C24.4 18.8857 24.3263 19.0637 24.195 19.195C24.0637 19.3263 23.8857 19.4 23.7 19.4H22.3C22.1143 19.4 21.9363 19.3263 21.805 19.195C21.6737 19.0637 21.6 18.8857 21.6 18.7C21.6 18.5143 21.6737 18.3363 21.805 18.205C21.9363 18.0737 22.1143 18 22.3 18ZM18.1 20.8H19.5C19.6857 20.8 19.8637 20.8737 19.995 21.005C20.1262 21.1363 20.2 21.3143 20.2 21.5C20.2 21.6857 20.1262 21.8637 19.995 21.995C19.8637 22.1262 19.6857 22.2 19.5 22.2H18.1C17.9143 22.2 17.7363 22.1262 17.605 21.995C17.4737 21.8637 17.4 21.6857 17.4 21.5C17.4 21.3143 17.4737 21.1363 17.605 21.005C17.7363 20.8737 17.9143 20.8 18.1 20.8ZM22.3 20.8H23.7C23.8857 20.8 24.0637 20.8737 24.195 21.005C24.3263 21.1363 24.4 21.3143 24.4 21.5C24.4 21.6857 24.3263 21.8637 24.195 21.995C24.0637 22.1262 23.8857 22.2 23.7 22.2H22.3C22.1143 22.2 21.9363 22.1262 21.805 21.995C21.6737 21.8637 21.6 21.6857 21.6 21.5C21.6 21.3143 21.6737 21.1363 21.805 21.005C21.9363 20.8737 22.1143 20.8 22.3 20.8ZM18.1 23.6H19.5C19.6857 23.6 19.8637 23.6737 19.995 23.805C20.1262 23.9363 20.2 24.1143 20.2 24.3C20.2 24.4857 20.1262 24.6637 19.995 24.795C19.8637 24.9263 19.6857 25 19.5 25H18.1C17.9143 25 17.7363 24.9263 17.605 24.795C17.4737 24.6637 17.4 24.4857 17.4 24.3C17.4 24.1143 17.4737 23.9363 17.605 23.805C17.7363 23.6737 17.9143 23.6 18.1 23.6ZM22.3 23.6H23.7C23.8857 23.6 24.0637 23.6737 24.195 23.805C24.3263 23.9363 24.4 24.1143 24.4 24.3C24.4 24.4857 24.3263 24.6637 24.195 24.795C24.0637 24.9263 23.8857 25 23.7 25H22.3C22.1143 25 21.9363 24.9263 21.805 24.795C21.6737 24.6637 21.6 24.4857 21.6 24.3C21.6 24.1143 21.6737 23.9363 21.805 23.805C21.9363 23.6737 22.1143 23.6 22.3 23.6ZM17.4 14.5C17.4 14.3143 17.4737 14.1363 17.605 14.005C17.7363 13.8737 17.9143 13.8 18.1 13.8H23.7C23.8857 13.8 24.0637 13.8737 24.195 14.005C24.3263 14.1363 24.4 14.3143 24.4 14.5V15.9C24.4 16.0857 24.3263 16.2637 24.195 16.395C24.0637 16.5262 23.8857 16.6 23.7 16.6H18.1C17.9143 16.6 17.7363 16.5262 17.605 16.395C17.4737 16.2637 17.4 16.0857 17.4 15.9V14.5Z" fill="#606D93"/>
<path d="M11.8 8.2C11.0574 8.2 10.3452 8.495 9.8201 9.0201C9.295 9.5452 9 10.2574 9 11C9 11.7426 9.295 12.4548 9.8201 12.9799C10.3452 13.505 11.0574 13.8 11.8 13.8C12.5426 13.8 13.2548 13.505 13.7799 12.9799C14.305 12.4548 14.6 11.7426 14.6 11C14.6 10.2574 14.305 9.5452 13.7799 9.0201C13.2548 8.495 12.5426 8.2 11.8 8.2ZM10.4 11C10.4 10.6287 10.5475 10.2726 10.8101 10.0101C11.0726 9.7475 11.4287 9.6 11.8 9.6C12.1713 9.6 12.5274 9.7475 12.7899 10.0101C13.0525 10.2726 13.2 10.6287 13.2 11C13.2 11.3713 13.0525 11.7274 12.7899 11.9899C12.5274 12.2525 12.1713 12.4 11.8 12.4C11.4287 12.4 11.0726 12.2525 10.8101 11.9899C10.5475 11.7274 10.4 11.3713 10.4 11ZM2 6.1C2 5.54305 2.22125 5.0089 2.61508 4.61508C3.0089 4.22125 3.54305 4 4.1 4H19.5C20.057 4 20.5911 4.22125 20.9849 4.61508C21.3787 5.0089 21.6 5.54305 21.6 6.1V11H20.2V9.6H18.8C18.0574 9.6 17.3452 9.305 16.8201 8.7799C16.295 8.2548 16 7.54261 16 6.8V5.4H7.6V6.8C7.6 7.54261 7.305 8.2548 6.7799 8.7799C6.2548 9.305 5.54261 9.6 4.8 9.6H3.4V12.4H4.8C5.54261 12.4 6.2548 12.695 6.7799 13.2201C7.305 13.7452 7.6 14.4574 7.6 15.2V16.6H14.6V18H4.1C3.54305 18 3.0089 17.7788 2.61508 17.3849C2.22125 16.9911 2 16.457 2 15.9V6.1ZM4.1 5.4C3.91435 5.4 3.7363 5.47375 3.60503 5.60503C3.47375 5.7363 3.4 5.91435 3.4 6.1V8.2H4.8C5.1713 8.2 5.5274 8.0525 5.78995 7.78995C6.0525 7.5274 6.2 7.1713 6.2 6.8V5.4H4.1ZM19.5 5.4H17.4V6.8C17.4 7.1713 17.5475 7.5274 17.8101 7.78995C18.0726 8.0525 18.4287 8.2 18.8 8.2H20.2V6.1C20.2 5.91435 20.1262 5.7363 19.995 5.60503C19.8637 5.47375 19.6857 5.4 19.5 5.4ZM4.1 16.6H6.2V15.2C6.2 14.8287 6.0525 14.4726 5.78995 14.2101C5.5274 13.9475 5.1713 13.8 4.8 13.8H3.4V15.9C3.4 16.0857 3.47375 16.2637 3.60503 16.395C3.7363 16.5262 3.91435 16.6 4.1 16.6ZM23 11V6.919C23.4096 7.06382 23.7642 7.33211 24.015 7.68691C24.2657 8.04171 24.4002 8.46554 24.4 8.9V11H23ZM14.6 19.4V20.8H6.9C6.46554 20.8002 6.04171 20.6657 5.68691 20.415C5.33211 20.1642 5.06382 19.8096 4.919 19.4H14.6ZM18.1 12.4C17.543 12.4 17.0089 12.6212 16.6151 13.0151C16.2212 13.4089 16 13.943 16 14.5V24.3C16 24.857 16.2212 25.3911 16.6151 25.7849C17.0089 26.1787 17.543 26.4 18.1 26.4H23.7C24.257 26.4 24.7911 26.1787 25.1849 25.7849C25.5787 25.3911 25.8 24.857 25.8 24.3V14.5C25.8 13.943 25.5787 13.4089 25.1849 13.0151C24.7911 12.6212 24.257 12.4 23.7 12.4H18.1ZM18.1 18H19.5C19.6857 18 19.8637 18.0737 19.995 18.205C20.1262 18.3363 20.2 18.5143 20.2 18.7C20.2 18.8857 20.1262 19.0637 19.995 19.195C19.8637 19.3263 19.6857 19.4 19.5 19.4H18.1C17.9143 19.4 17.7363 19.3263 17.605 19.195C17.4737 19.0637 17.4 18.8857 17.4 18.7C17.4 18.5143 17.4737 18.3363 17.605 18.205C17.7363 18.0737 17.9143 18 18.1 18ZM22.3 18H23.7C23.8857 18 24.0637 18.0737 24.195 18.205C24.3263 18.3363 24.4 18.5143 24.4 18.7C24.4 18.8857 24.3263 19.0637 24.195 19.195C24.0637 19.3263 23.8857 19.4 23.7 19.4H22.3C22.1143 19.4 21.9363 19.3263 21.805 19.195C21.6737 19.0637 21.6 18.8857 21.6 18.7C21.6 18.5143 21.6737 18.3363 21.805 18.205C21.9363 18.0737 22.1143 18 22.3 18ZM18.1 20.8H19.5C19.6857 20.8 19.8637 20.8737 19.995 21.005C20.1262 21.1363 20.2 21.3143 20.2 21.5C20.2 21.6857 20.1262 21.8637 19.995 21.995C19.8637 22.1262 19.6857 22.2 19.5 22.2H18.1C17.9143 22.2 17.7363 22.1262 17.605 21.995C17.4737 21.8637 17.4 21.6857 17.4 21.5C17.4 21.3143 17.4737 21.1363 17.605 21.005C17.7363 20.8737 17.9143 20.8 18.1 20.8ZM22.3 20.8H23.7C23.8857 20.8 24.0637 20.8737 24.195 21.005C24.3263 21.1363 24.4 21.3143 24.4 21.5C24.4 21.6857 24.3263 21.8637 24.195 21.995C24.0637 22.1262 23.8857 22.2 23.7 22.2H22.3C22.1143 22.2 21.9363 22.1262 21.805 21.995C21.6737 21.8637 21.6 21.6857 21.6 21.5C21.6 21.3143 21.6737 21.1363 21.805 21.005C21.9363 20.8737 22.1143 20.8 22.3 20.8ZM18.1 23.6H19.5C19.6857 23.6 19.8637 23.6737 19.995 23.805C20.1262 23.9363 20.2 24.1143 20.2 24.3C20.2 24.4857 20.1262 24.6637 19.995 24.795C19.8637 24.9263 19.6857 25 19.5 25H18.1C17.9143 25 17.7363 24.9263 17.605 24.795C17.4737 24.6637 17.4 24.4857 17.4 24.3C17.4 24.1143 17.4737 23.9363 17.605 23.805C17.7363 23.6737 17.9143 23.6 18.1 23.6ZM22.3 23.6H23.7C23.8857 23.6 24.0637 23.6737 24.195 23.805C24.3263 23.9363 24.4 24.1143 24.4 24.3C24.4 24.4857 24.3263 24.6637 24.195 24.795C24.0637 24.9263 23.8857 25 23.7 25H22.3C22.1143 25 21.9363 24.9263 21.805 24.795C21.6737 24.6637 21.6 24.4857 21.6 24.3C21.6 24.1143 21.6737 23.9363 21.805 23.805C21.9363 23.6737 22.1143 23.6 22.3 23.6ZM17.4 14.5C17.4 14.3143 17.4737 14.1363 17.605 14.005C17.7363 13.8737 17.9143 13.8 18.1 13.8H23.7C23.8857 13.8 24.0637 13.8737 24.195 14.005C24.3263 14.1363 24.4 14.3143 24.4 14.5V15.9C24.4 16.0857 24.3263 16.2637 24.195 16.395C24.0637 16.5262 23.8857 16.6 23.7 16.6H18.1C17.9143 16.6 17.7363 16.5262 17.605 16.395C17.4737 16.2637 17.4 16.0857 17.4 15.9V14.5Z" stroke="#606D93" stroke-width="0.6" mask="url(#path-1-outside-1_276_40)"/>
</svg>
